<?xml version="1.0" encoding="UTF-8"?>
<svg width="135px" height="121px" viewBox="0 0 135 121" version="1.1" xmlns="http://www.w3.org/2000/svg" xmlns:xlink="http://www.w3.org/1999/xlink">
    <title>新建</title>
    <g id="图标标识" stroke="none" stroke-width="1" fill="none" fill-rule="evenodd">
        <g id="WiNEX6.0-标识-Sign-&amp;-状态戳-Status-Stamp" transform="translate(-100.000000, -2892.000000)" fill="#2D5AFA">
            <path d="M118.840793,2980.521 C128.523603,2997.25887 146.620914,3008.51997 167.348396,3008.51997 C188.075877,3008.51997 206.173188,2997.25887 215.855998,2980.521 L220.427332,2980.52128 C210.36716,2999.55178 190.37222,3012.51997 167.348396,3012.51997 C144.324572,3012.51997 124.329631,2999.55178 114.269459,2980.52128 L118.840793,2980.521 Z M201.290439,2980.52077 C193.220101,2990.29233 181.011519,2996.51997 167.348396,2996.51997 C153.685272,2996.51997 141.476691,2990.29233 133.406352,2980.52077 L137.399254,2980.52105 C144.881404,2988.5204 155.531044,2993.51997 167.348396,2993.51997 C179.165747,2993.51997 189.815388,2988.5204 197.297537,2980.52105 L201.290439,2980.52077 Z M227.348396,2928.51997 C229.557535,2928.51997 231.348396,2930.31083 231.348396,2932.51997 L231.348396,2972.51997 C231.348396,2974.72911 229.557535,2976.51997 227.348396,2976.51997 L107.348396,2976.51997 C105.139257,2976.51997 103.348396,2974.72911 103.348396,2972.51997 L103.348396,2932.51997 C103.348396,2930.31083 105.139257,2928.51997 107.348396,2928.51997 L227.348396,2928.51997 Z M227.348396,2930.51997 L107.348396,2930.51997 C106.294034,2930.51997 105.43023,2931.33585 105.353881,2932.37071 L105.348396,2932.51997 L105.348396,2972.51997 C105.348396,2973.57433 106.164273,2974.43813 107.199133,2974.51448 L107.348396,2974.51997 L227.348396,2974.51997 C228.402757,2974.51997 229.266561,2973.70409 229.34291,2972.66923 L229.348396,2972.51997 L229.348396,2932.51997 C229.348396,2931.4154 228.452965,2930.51997 227.348396,2930.51997 Z M185.138396,2939.75997 C183.998396,2942.45997 182.588396,2945.60997 181.328396,2948.18997 L181.328396,2948.18997 L182.048396,2948.18997 L182.648396,2948.12997 L184.628396,2948.57997 C184.238396,2952.98997 183.458396,2956.58997 182.288396,2959.46997 C185.048396,2961.83997 188.768396,2962.34997 193.178396,2962.37997 L193.178396,2962.37997 L194.689676,2962.37925 C197.235596,2962.37637 201.536396,2962.36197 203.168396,2962.28997 C202.658396,2963.03997 202.118396,2964.59997 201.908396,2965.55997 L201.908396,2965.55997 L193.088396,2965.55997 C188.048396,2965.55997 183.938396,2964.89997 180.848396,2962.34997 C179.918396,2963.90997 178.808396,2965.13997 177.548396,2966.09997 C177.038396,2965.40997 175.718396,2964.17997 174.968396,2963.75997 C176.408396,2962.76997 177.578396,2961.44997 178.538396,2959.79997 C177.518396,2958.23997 176.618396,2956.34997 175.898396,2953.97997 L175.898396,2953.97997 L178.508396,2953.10997 C178.898396,2954.45997 179.408396,2955.62997 179.978396,2956.58997 C180.518396,2955.05997 180.878396,2953.28997 181.148396,2951.27997 L181.148396,2951.27997 L176.348396,2951.27997 C177.548396,2949.05997 179.078396,2945.84997 180.338396,2942.84997 L180.338396,2942.84997 L175.898396,2942.84997 L175.898396,2939.75997 Z M156.038396,2938.40997 L158.798396,2941.01997 C156.308396,2941.97997 153.218396,2942.72997 150.278396,2943.26997 L150.278396,2943.26997 L150.278396,2947.97997 L159.488396,2947.97997 L159.488396,2951.27997 L156.698396,2951.27997 L156.698396,2966.00997 L153.218396,2966.00997 L153.218396,2951.27997 L150.278396,2951.27997 L150.278396,2951.48997 C150.278396,2955.89997 149.888396,2962.01997 147.308396,2965.76997 C146.738396,2965.13997 145.328396,2964.02997 144.578396,2963.63997 C145.148396,2962.79997 145.598396,2961.80997 145.898396,2960.75997 L145.898396,2960.75997 L143.528396,2962.25997 C143.048396,2961.02997 142.028396,2959.13997 141.188396,2957.75997 L141.188396,2957.75997 L143.528396,2956.46997 C144.428396,2957.81997 145.418396,2959.58997 145.928396,2960.69997 C146.858396,2957.75997 146.948396,2954.36997 146.948396,2951.48997 L146.948396,2951.48997 L146.948396,2940.95997 C150.248396,2940.35997 153.878396,2939.42997 156.038396,2938.40997 L156.038396,2938.40997 Z M139.628396,2937.95997 C140.078396,2938.91997 140.588396,2940.08997 140.918396,2941.07997 L140.918396,2941.07997 L145.658396,2941.07997 L145.658396,2943.98997 L141.878396,2943.98997 L144.338396,2944.46997 C143.858396,2945.60997 143.438396,2946.77997 142.988396,2947.70997 L142.988396,2947.70997 L146.108396,2947.70997 L146.108396,2950.64997 L140.678396,2950.64997 L140.678396,2952.95997 L145.628396,2952.95997 L145.628396,2955.95997 L140.678396,2955.95997 L140.678396,2962.37997 C140.678396,2963.81997 140.438396,2964.56997 139.538396,2965.07997 C138.638396,2965.55997 137.438396,2965.58997 135.848396,2965.58997 C135.728396,2964.74997 135.308396,2963.51997 134.888396,2962.67997 C135.511473,2962.70074 136.148928,2962.70713 136.591718,2962.70909 L136.591718,2962.70909 L137.048396,2962.70997 C137.378396,2962.70997 137.468396,2962.61997 137.468396,2962.28997 L137.468396,2962.28997 L137.468396,2955.95997 L131.948396,2955.95997 L131.948396,2952.95997 L137.468396,2952.95997 L137.468396,2950.64997 L131.768396,2950.64997 L131.768396,2947.70997 L134.708396,2947.70997 C134.558396,2946.77997 134.228396,2945.51997 133.808396,2944.58997 L133.808396,2944.58997 L136.268396,2943.98997 L132.218396,2943.98997 L132.218396,2941.07997 L137.348396,2941.07997 C137.078396,2940.26997 136.748396,2939.42997 136.448396,2938.70997 L136.448396,2938.70997 Z M133.988396,2956.76997 L136.748396,2957.45997 C136.028396,2959.43997 134.888396,2961.56997 133.718396,2962.88997 C133.178396,2962.43997 132.068396,2961.59997 131.408396,2961.20997 C132.548396,2960.06997 133.448396,2958.35997 133.988396,2956.76997 L133.988396,2956.76997 Z M194.288396,2938.19997 L194.288396,2940.44997 L200.858396,2940.44997 L200.858396,2944.46997 L202.508396,2944.46997 L202.508396,2947.19997 L200.858396,2947.19997 L200.858396,2951.18997 L194.288396,2951.18997 L194.288396,2952.62997 L201.158396,2952.62997 L201.158396,2955.20997 L194.288396,2955.20997 L194.288396,2956.67997 L202.148396,2956.67997 L202.148396,2959.49997 L194.288396,2959.49997 L194.288396,2961.53997 L190.928396,2961.53997 L190.928396,2959.49997 L184.298396,2959.49997 L184.298396,2956.67997 L190.928396,2956.67997 L190.928396,2955.20997 L185.498396,2955.20997 L185.498396,2952.62997 L190.928396,2952.62997 L190.928396,2951.18997 L185.678396,2951.18997 L185.678396,2948.48997 L190.928396,2948.48997 L190.928396,2947.19997 L184.178396,2947.19997 L184.178396,2944.46997 L190.928396,2944.46997 L190.928396,2943.14997 L185.828396,2943.14997 L185.828396,2940.44997 L190.928396,2940.44997 L190.928396,2938.19997 L194.288396,2938.19997 Z M197.738396,2947.19997 L194.288396,2947.19997 L194.288396,2948.48997 L197.738396,2948.48997 L197.738396,2947.19997 Z M141.098396,2943.98997 L136.688396,2943.98997 C137.198396,2945.00997 137.588396,2946.41997 137.708396,2947.31997 L137.708396,2947.31997 L136.268396,2947.70997 L139.808396,2947.70997 C140.258396,2946.62997 140.798396,2945.09997 141.098396,2943.98997 L141.098396,2943.98997 Z M197.738396,2943.14997 L194.288396,2943.14997 L194.288396,2944.46997 L197.738396,2944.46997 L197.738396,2943.14997 Z M167.348396,2908.51997 C181.011984,2908.51997 193.220931,2914.74803 201.291263,2924.52017 L197.298468,2924.51988 C189.816271,2916.51995 179.166237,2911.51997 167.348396,2911.51997 C155.530554,2911.51997 144.88052,2916.51995 137.398323,2924.51988 L133.405528,2924.52017 C141.47586,2914.74803 153.684808,2908.51997 167.348396,2908.51997 Z M167.348396,2892.51997 C190.372623,2892.51997 210.36786,2905.48862 220.42786,2924.51966 L215.856574,2924.51994 C206.173906,2907.78152 188.076289,2896.51997 167.348396,2896.51997 C146.620503,2896.51997 128.522885,2907.78152 118.840217,2924.51994 L114.268931,2924.51966 C124.328931,2905.48862 144.324168,2892.51997 167.348396,2892.51997 Z" id="新建" transform="translate(167.348396, 2952.519968) rotate(-15.000000) translate(-167.348396, -2952.519968) "></path>
        </g>
    </g>
</svg>