<?xml version="1.0" encoding="UTF-8"?>
<svg width="135px" height="121px" viewBox="0 0 135 121" version="1.1" xmlns="http://www.w3.org/2000/svg" xmlns:xlink="http://www.w3.org/1999/xlink">
    <title>草稿</title>
    <g id="图标标识" stroke="none" stroke-width="1" fill="none" fill-rule="evenodd">
        <g id="WiNEX6.0-标识-Sign-&amp;-状态戳-Status-Stamp" transform="translate(-274.000000, -2883.000000)" fill="#2D5AFA">
            <path d="M399.865982,2956.82931 C395.074059,2977.81513 379.116845,2995.51651 356.877538,3001.47552 C334.638232,3007.43452 311.968188,3000.08328 297.325352,2984.30499 L301.740849,2983.12158 C315.425805,2996.78302 335.821052,3002.97648 355.842262,2997.61181 C375.863472,2992.24715 390.429544,2976.68583 395.450341,2958.01219 L399.865982,2956.82931 Z M381.381032,2961.78182 C376.114751,2973.30918 365.933997,2982.48443 352.736434,2986.0207 C339.53887,2989.55698 326.134455,2986.70136 315.810039,2979.35151 L319.66696,2978.31835 C328.964546,2984.1086 340.545291,2986.18148 351.959976,2983.12293 C363.374662,2980.06437 372.367442,2972.47883 377.524259,2962.81553 L381.381032,2961.78182 Z M397.991268,2907.63703 L408.344029,2946.27407 C408.915797,2948.40793 407.649467,2950.60128 405.515602,2951.17305 L289.604503,2982.23133 C287.470639,2982.8031 285.277291,2981.53677 284.705524,2979.4029 L274.352762,2940.76587 C273.780995,2938.63201 275.047325,2936.43866 277.181189,2935.86689 L393.092288,2904.80861 C395.226152,2904.23684 397.4195,2905.50317 397.991268,2907.63703 Z M393.609926,2906.74046 L277.698827,2937.79874 C276.680392,2938.07163 276.057186,2939.08328 276.25128,2940.10264 L276.284613,2940.24823 L286.637375,2978.88527 C286.910264,2979.9037 287.92191,2980.52691 288.941269,2980.33281 L289.086865,2980.29948 L404.997964,2949.24119 C406.016399,2948.96831 406.639605,2947.95666 406.445511,2946.9373 L406.412178,2946.7917 L396.059416,2908.15467 C395.773532,2907.08774 394.676858,2906.45457 393.609926,2906.74046 Z M328.546738,2939.56727 L331.497276,2950.57882 L323.122699,2952.82278 L323.596338,2954.59043 L334.955625,2951.54672 L335.786434,2954.64734 L324.427147,2957.69105 L325.560774,2961.92181 L322.083441,2962.85355 L320.949814,2958.6228 L309.909281,2961.5811 L309.078472,2958.48048 L320.119005,2955.52218 L319.645366,2953.75453 L311.473633,2955.94414 L308.523096,2944.93259 L328.546738,2939.56727 Z M364.45265,2922.30597 C365.164761,2923.10903 366.025921,2924.12061 366.658863,2924.97594 L366.658863,2924.97594 L372.94704,2923.29103 L373.723497,2926.1888 L357.061277,2930.65343 L356.385759,2928.13237 C355.565094,2928.66285 354.657495,2929.21662 353.676412,2929.72797 L353.676412,2929.72797 L354.778981,2933.84281 L358.024492,2932.97318 L358.886359,2936.18971 L355.640849,2937.05934 L355.757317,2937.49401 C356.439893,2937.8391 358.402766,2939.02136 359.46261,2939.73124 L359.46261,2939.73124 L359.260731,2938.97782 L375.749085,2934.55978 L378.435627,2944.58609 C378.792797,2945.91906 378.784067,2946.69786 378.06018,2947.3577 C377.402013,2948.03099 376.3376,2948.34726 374.880947,2948.70651 C374.576605,2947.91842 373.904841,2946.91821 373.355228,2946.25796 C373.882652,2946.13993 374.438308,2945.99687 374.780972,2945.9065 L374.780972,2945.9065 L375.043704,2945.83659 C375.304504,2945.76671 375.368144,2945.65648 375.306027,2945.42466 L375.306027,2945.42466 L373.372649,2938.20919 L363.085539,2940.96562 L365.810903,2951.13682 L362.739259,2951.95986 L359.757664,2940.8324 L358.819714,2943.47521 C358.343586,2942.85739 357.557991,2942.0119 356.751182,2941.20316 L356.751182,2941.20316 L359.841482,2952.73632 L356.624949,2953.59819 L353.915113,2943.48494 C353.649336,2945.85447 353.213296,2948.05221 352.542795,2949.72267 C351.915537,2948.77264 350.737144,2947.50442 349.974843,2946.74587 C350.955777,2944.4953 351.676319,2941.04111 351.873738,2938.06874 L351.873738,2938.06874 L348.628227,2938.93837 L347.76636,2935.72184 L351.562448,2934.70468 L350.61517,2931.16939 C349.581816,2931.60157 348.577439,2932.02598 347.58651,2932.38467 C347.276485,2931.69129 346.523471,2930.61967 345.944881,2929.96718 C348.784145,2928.74053 351.851071,2927.20441 353.762489,2925.7605 L353.762489,2925.7605 L356.346936,2927.98748 L356.28482,2927.75565 L362.804819,2926.00863 C362.313163,2925.33285 361.800293,2924.69382 361.33193,2924.10497 L361.33193,2924.10497 Z M326.899764,2947.2141 L313.627943,2950.77027 L314.078288,2952.45098 L327.350109,2948.89481 L326.899764,2947.2141 Z M325.804959,2943.12823 L312.533138,2946.6844 L312.975719,2948.33614 L326.24754,2944.77996 L325.804959,2943.12823 Z M372.493062,2939.56298 L374.177974,2945.85115 L366.29602,2947.96312 L364.611108,2941.67494 L372.493062,2939.56298 Z M370.556419,2942.5355 L367.658642,2943.31196 L368.124516,2945.05063 L371.022294,2944.27417 L370.556419,2942.5355 Z M329.994622,2933.49564 L330.809902,2936.53831 L324.608658,2938.19993 L325.090061,2939.99655 L321.728639,2940.89724 L321.247236,2939.10062 L314.582348,2940.88647 L315.063751,2942.68309 L311.673351,2943.59155 L311.191948,2941.79493 L305.135593,2943.41772 L304.320313,2940.37505 L310.376668,2938.75226 L309.941852,2937.1295 L313.332252,2936.22105 L313.767068,2937.8438 L320.431956,2936.05795 L319.99714,2934.4352 L323.358562,2933.53451 L323.793378,2935.15726 L329.994622,2933.49564 Z M372.103938,2927.67875 L373.788849,2933.96692 L360.690895,2937.47651 L359.005983,2931.18833 L372.103938,2927.67875 Z M369.529783,2930.82209 L362.633073,2932.67006 L363.083418,2934.35077 L369.980129,2932.5028 L369.529783,2930.82209 Z M385.372208,2902.73577 L380.956757,2903.91917 C367.271795,2890.25716 346.876136,2884.06335 326.854529,2889.42812 C306.832922,2894.7929 292.266669,2910.35472 287.246151,2929.02886 L282.830557,2930.21172 C287.622174,2909.22543 303.579557,2891.52353 325.819253,2885.56442 C348.058949,2879.60531 370.729398,2886.95691 385.372208,2902.73577 Z M366.887806,2907.68918 L363.030988,2908.72231 C353.733206,2902.93151 342.151973,2900.85833 330.736815,2903.91701 C319.321656,2906.97569 310.328604,2914.56173 305.171891,2924.22561 L301.315222,2925.2593 C306.581348,2913.73138 316.762345,2904.55563 329.960358,2901.01923 C343.15837,2897.48284 356.563248,2900.33877 366.887806,2907.68918 Z" id="草稿"></path>
        </g>
    </g>
</svg>