<?xml version="1.0" standalone="no"?><!DOCTYPE svg PUBLIC "-//W3C//DTD SVG 1.1//EN" "http://www.w3.org/Graphics/SVG/1.1/DTD/svg11.dtd"><svg t="1647231553547" class="icon" viewBox="0 0 1227 1024" version="1.1" xmlns="http://www.w3.org/2000/svg" p-id="11967" xmlns:xlink="http://www.w3.org/1999/xlink" width="239.6484375" height="200"><defs><style type="text/css"></style></defs><path d="M736.306777 966.774479c188.974545-50.641455 320.520463-208.608264 346.619768-390.753322l35.35762-9.478347c-22.993455 201.12714-165.82876 377.356694-373.209917 432.923504-207.38962 55.575273-419.205289-25.633851-539.673388-188.314446l35.349157-9.478347c113.672463 144.697124 306.582215 215.73395 495.55676 165.100958z m-26.928661-97.91471c133.12-35.679207 229.97686-139.153983 263.362644-263.320331l18.753587-5.018446c-32.454876 133.966281-135.210314 246.487802-277.740959 284.680463-142.522182 38.192661-287.777851-7.878876-382.865983-107.672331l18.745124-5.026909c91.000595 90.839802 226.617124 132.019835 359.745587 96.349091z m416.327934-672.28562a16.92562 16.92562 0 0 1 20.733884 11.966413l78.848 294.277289a16.92562 16.92562 0 0 1-11.966413 20.733885L101.596033 821.434182a16.92562 16.92562 0 0 1-20.733884-11.966413L2.014149 515.182017a16.92562 16.92562 0 0 1 11.966413-20.733885l1111.725488-297.873983z m-3.791339 18.533553L26.530909 508.614876a8.46281 8.46281 0 0 0-6.177851 9.393719l0.194644 0.973223 74.472728 277.927141a8.46281 8.46281 0 0 0 9.393719 6.186314l0.973223-0.203108 1095.375339-293.49871a8.46281 8.46281 0 0 0 6.177851-9.393719l-0.194645-0.973224-74.472727-277.935603a8.46281 8.46281 0 0 0-10.358479-5.983207zM679.817521 380.267901s1.861818 7.912727 2.598082 11.653289c9.664529 50.77686 11.458645 73.152529 6.093223 83.527934-4.603769 8.335868-10.637752 12.313388-19.447537 15.723901-7.65038 2.843504-21.808661 6.89719-36.220826 9.96919-2.665785-7.955041-9.368331-18.254281-16.307835-24.542149a389.170777 389.170777 0 0 0 32.277157-7.066446c4.654545-1.252496 7.218777-2.462678 9.021355-5.576992 3.182017-4.78995 2.818116-18.888992-2.479603-48.491901l-62.049322 16.629422c-0.016926 35.230678-10.265388 70.562909-55.397554 104.211041l163.814612-43.896595 28.18962 105.209653-31.388562 8.412033-2.564232-9.562975-106.91914 28.646611 2.564231 9.562976-29.916033 8.014281-27.732628-103.48324c-4.620694 3.34281-9.799934 6.56714-14.979174 9.791471-4.671471-6.62638-15.495405-16.612496-23.518148-21.030083 53.087207-29.467504 64.038083-59.214281 64.99438-87.065388l-65.485223 17.543405-7.159538-26.734017z m320.029619-92.329256l59.138116 220.710082-31.879405 8.547438-3.486677-12.998876-147.388298 39.495934 3.486678 12.998876-30.406876 8.141223-59.138116-220.710082 209.674578-56.176133zM357.04595 466.233124l32.522579 121.390545-30.406876 8.149686-3.088926-11.526347-111.336727 29.831405 13.997488 52.240926c4.070612 15.199207 9.080595 16.223207 36.05157 8.995967l80.193587-21.487075c25.261488-6.770248 27.478744-14.192132 21.630942-50.743008 8.843636 2.623471 23.399669 3.977521 32.446413 3.40205 6.711008 47.611769-0.465455 63.987306-45.098314 75.953719l-81.16681 21.749421c-47.332496 12.677289-64.30043 7.235702-74.218843-29.789091L197.945124 560.111074l30.161455-8.081983 8.936727 33.343471 111.336727-29.822942-13.997488-52.240926-151.315041 40.545323-7.751934-28.94281 181.721918-48.686546z m320.385058 61.084562l-106.91914 28.646612 11.492496 42.914909 106.927603-28.646612-11.509422-42.914909z m298.551009-200.907107L828.593719 365.89805l40.350678 150.570314 147.379834-39.487471-40.342214-150.578777z m-16.037025 35.315305l24.965289 93.184-100.047339 26.810182-24.965289-93.184 100.047339-26.810182z m-22.595703 33.385785l-43.16033 11.568662 11.365553 42.424066 43.160331-11.568661-11.365554-42.424067zM482.227835 18.533554c207.38962-55.56681 419.205289 25.642314 539.673388 188.322909l-35.349157 9.478347C872.879603 71.637686 679.969851 0.592397 490.986843 51.225388c-188.974545 50.641455-320.520463 208.62519-346.619769 390.770248l-35.349157 9.469885c22.984992-201.12714 165.820298-377.356694 373.209918-432.931967z m30.017586 114.620297c142.530645-38.192661 287.786314 7.870413 382.874447 107.672331l-18.745124 5.035372C785.374149 155.013289 649.75762 113.824793 516.620694 149.504 383.500694 185.166281 286.635372 288.649521 253.25805 412.815868l-18.753587 5.018446c32.454876-133.974744 135.210314-246.504727 277.740958-284.688926z" fill="#FF8C00" p-id="11968"></path></svg>