<?xml version="1.0" standalone="no"?><!DOCTYPE svg PUBLIC "-//W3C//DTD SVG 1.1//EN" "http://www.w3.org/Graphics/SVG/1.1/DTD/svg11.dtd"><svg t="1652058322692" class="icon" viewBox="0 0 1024 1024" version="1.1" xmlns="http://www.w3.org/2000/svg" p-id="29868" xmlns:xlink="http://www.w3.org/1999/xlink" width="200" height="200"><defs><style type="text/css">@font-face { font-family: feedback-iconfont; src: url("//at.alicdn.com/t/font_1031158_u69w8yhxdu.woff2?t=1630033759944") format("woff2"), url("//at.alicdn.com/t/font_1031158_u69w8yhxdu.woff?t=1630033759944") format("woff"), url("//at.alicdn.com/t/font_1031158_u69w8yhxdu.ttf?t=1630033759944") format("truetype"); }
</style></defs><path d="M378.016793 17.915769c270.87762-72.577058 549.304066 88.174017 621.881124 359.051636 72.585521 270.87762-88.165554 549.304066-359.043173 621.881124-270.87762 72.585521-549.304066-88.165554-621.889587-359.043174C-53.611901 368.927736 107.139174 90.501289 378.016793 17.915769z m8.759009 32.700297C133.957818 118.36086-16.079339 378.228364 51.665455 631.046347c67.744793 252.817983 327.612298 402.846678 580.430281 335.110347 252.817983-67.744793 402.846678-327.612298 335.110347-580.430281-67.744793-252.817983-327.612298-402.85514-580.430281-335.110347z m15.334611 57.225521c221.217851-59.281983 448.596628 72.001587 507.870149 293.219438 59.273521 221.217851-72.001587 448.596628-293.219438 507.870149-221.217851 59.273521-448.596628-72.001587-507.878612-293.219438-59.273521-221.217851 72.01005-448.596628 293.227901-507.870149z m4.375273 16.341686C194.306116 181.044893 68.379504 399.139967 125.232661 611.328c56.86162 212.188033 274.956694 338.114645 487.144727 281.253025 150.138711-40.223736 257.091702-161.19114 286.660761-303.662546l-38.234975 10.24c-33.631207 9.00443-59.764364 10.036893-83.121719-11.661752-2.174942 15.622347-6.95643 29.433653-14.843769 40.993852-4.42605-2.868893-15.622347-7.955041-21.250116-9.537587 15.520793-19.769124 17.814215-47.180165 12.863471-78.619504l22.282579-3.850579c1.125554 7.794248 1.667174 15.554645 2.056463 22.764959 9.351405 13.312 19.929917 19.718347 31.811702 22.324892l-16.333223-60.966082-38.311141 10.265388-5.492363-20.505388 98.913322-26.497058 5.492364 20.496925-38.311141 10.265389 5.687009 21.224727 49.278942-13.201983 5.399272 20.141487-49.278942 13.201984 6.939504 25.896198a164.05157 164.05157 0 0 0 22.976529-4.806876l10.113058-2.716562c11.086281-2.995835 26.056992-7.066446 35.62843-9.816859 7.388033-51.62314 4.679934-105.556628-9.672992-159.117752-56.853157-212.188033-274.956694-338.106182-487.144727-281.253025z m278.976529 484.56357c14.945322 2.538843 35.941554 7.523438 47.349421 11.983339l-9.85071 18.635107c-10.375405-4.933818-31.430876-10.849322-46.934744-14.022876z m-17.374149-58.376463l8.192 30.56767c6.262479 23.382744 4.612231 51.775471-37.710281 80.845223-3.850579-3.588231-11.941025-9.326017-17.628033-11.847934 39.148959-24.372893 38.988165-47.264793 34.612893-63.631868l-8.149686-30.38995 20.683107-5.543141z m-162.883702-20.158413l28.291173 105.565091c2.74195 10.248463 2.598083 17.611107-3.046611 23.171173-5.822413 5.610843-14.66605 8.555901-26.89481 11.839471-2.58962-6.059372-9.15676-15.478479-13.989025-20.539239 6.431736-1.421752 13.142744-3.156628 17.035636-4.180628l1.819504-0.490843 0.668562-0.169256c2.64886-0.905521 3.13124-2.005686 2.496529-4.341422l-22.451834-83.798744-29.856794 7.997356 36.000794 134.338644-21.766348 5.830876-41.679338-155.563372 73.372562-19.659107z m40.029091-23.255802l19.836826 0.660099c-0.42314 4.163702-1.032463 8.378182-1.591008 12.761918l32.01481-8.572827 5.009983 18.70281-41.721653 11.170909a153.625388 153.625388 0 0 1-6.169388 17.264133l48.559603-12.998876 5.103074 19.058248-20.496925 5.500826 4.722248 17.61957 21.580165-5.788562 5.103074 19.066711-21.580165 5.780099 7.278017 27.16562 16.857917-15.512331c2.031074 5.433124 6.000132 13.04119 8.775934 16.92562-28.621223 27.715702-33.85124 33.360397-36.356231 37.684893-3.300496-2.961983-11.509421-7.701157-15.783141-9.258314 3.664397-5.026909 9.385256-16.781752 6.448661-27.749554l-6.457124-24.09362-21.766347 5.822413-5.103074-19.058248 21.749421-5.830876-4.713785-17.628033-12.77038 3.427438-3.850579-14.386776c-1.404826 2.682711-2.80119 5.373884-4.349884 7.523438-2.58962-3.935207-10.434645-13.777455-14.699901-17.458777 7.912727-12.914248 13.396628-30.576132 14.369852-47.797951z m-212.103405 70.909885l5.729322 21.393983-28.587372 7.667306 28.096529 104.845752c3.368198 12.584198 2.174942 19.650645-5.077686 25.642314-7.041058 6.127074-18.990545 9.715306-35.713058 14.200595-2.691174-6.41481-9.664529-15.918545-14.725289-21.114711 6.939504-1.387901 14.649124-3.34281 20.42076-4.874578l2.945058-0.787042 3.469752-0.947834 1.548694-0.423141c3.596694-0.956298 4.739174-2.420364 3.82519-5.839339L287.066975 613.130579l-45.496066 12.186446-5.737785-21.393984 97.296926-26.065454z m-124.107108 18.787438l9.105984 33.995107 20.319206-5.441587 5.399273 20.141488-20.319207 5.441587 6.888728 25.718479 19.109024-10.705455 8.141224 19.591405c-7.159537 4.231405-14.310612 8.46281-21.512463 12.516496l11.170909 41.721653c2.851967 10.612364 2.132628 16.587107-3.114314 21.461686-5.196165 5.052298-13.684364 7.904264-26.632463 11.374017-2.031074-5.433124-7.447273-13.422017-11.687141-18.448926a349.852562 349.852562 0 0 0 14.792992-3.588231l1.751802-0.465455 0.634711-0.169256c2.513455-0.677025 3.173554-1.819504 2.454214-4.510678l-9.546049-35.611504-17.941157 10.011504-11.619438-19.633719c6.812562-3.359736 15.08919-7.701157 23.636628-12.49957l-8.293554-30.93157-23.188099 6.220165-5.399273-20.141488 23.1881-6.220165-9.097521-33.986645 21.757884-5.839338z m197.081918-48.559604l20.860826 13.108893c-12.398017 9.105983-27.876496 18.262744-42.914909 26.150083l6.795636 25.354578 43.87967-11.763306 5.54314 20.683108-43.879669 11.763305 10.070744 37.574876 41.205421-20.285355c1.455603 6.160926 4.63762 15.14843 6.651769 19.802975a2209.775074 2209.775074 0 0 0-39.165885 20.877752l-2.691173 1.489455c-12.01719 6.702545-16.663273 9.867636-19.591405 12.550347l-0.609323 0.575471a30.203769 30.203769 0 0 0-0.558545 0.558546c-2.750413-5.238479-9.613752-15.732364-14.522182-20.395372 3.605157-3.080463 7.802711-8.259702 5.881653-15.453091l-24.533686-91.533752c17.374149-9.283702 36.136198-21.241653 47.577918-31.058513zM649.122909 478.14876l12.093355 45.140628 32.547967-8.716694 22.934215 85.601323-20.674644 5.534677-17.687273-66.001454-44.599008 11.95795 17.881917 66.712331-19.78605 5.306181-23.128859-86.320661 32.547967-8.725157-12.093356-45.140628 19.963769-5.348496z m140.787306-39.267438c5.280793 5.33157 11.230149 12.414942 14.936859 18.364298l62.404761-16.730975 12.051041 44.962909-22.121785 5.923967-6.651769-24.812959-110.600462 29.63676 6.651768 24.812959-21.038545 5.636231-12.051042-44.954446 66.720794-17.881917a142.310612 142.310612 0 0 0-10.290777-13.235835z m-180.528661 55.702215c9.647603 7.244165 20.039934 17.94962 25.312264 25.405356l-14.454479 12.931173c-4.603769-7.828099-15.139967-19.075174-24.347504-26.827107z m61.160727-15.622347l20.056859 0.795504c-3.427438 13.066579-7.489587 26.68324-11.001652 35.907703l-16.417852-1.574083c3.13124-9.901488 6.448661-24.863736 7.362645-35.120661z m-250.076033-296.367603c48.111074-12.897322 97.576198 15.69005 110.473521 63.851901l23.755107-6.372496a16.400926 16.400926 0 0 1 20.082248 11.610975l38.234975 142.682975a16.400926 16.400926 0 0 1-11.594049 20.099174l-221.72562 59.408925a16.400926 16.400926 0 0 1-20.090711-11.602512l-38.226512-142.682975a16.400926 16.400926 0 0 1 11.594049-20.099174l23.755108-6.364033c-12.905785-48.153388 15.63081-97.643901 63.741884-110.541223zM454.452893 309.417256a16.400926 16.400926 0 0 0-11.873323 18.897455l0.279273 1.201719 4.248331 15.850843c0.321587 1.201719 0.770116 2.344198 1.337124 3.410512-8.412033 7.337256-12.524959 18.169653-9.740695 28.578909 4.104463 15.317686 21.605554 23.949752 39.106645 19.252893 17.501091-4.688397 28.350413-20.90314 24.24595-36.229289-2.792727-10.409256-11.763306-17.729587-22.722644-19.870678a16.265521 16.265521 0 0 0-0.279273-2.420364l-0.27081-1.210182-4.248331-15.850843a16.400926 16.400926 0 0 0-20.082247-11.610975z m-25.489984-95.121983a57.420165 57.420165 0 0 0-40.562248 70.342876l110.86281-29.704463a57.470942 57.470942 0 0 0-26.742479-34.892165 57.360926 57.360926 0 0 0-43.558083-5.746248z" fill="#EC0000" p-id="29869"></path></svg>