<?xml version="1.0" encoding="UTF-8"?>
<svg width="135px" height="121px" viewBox="0 0 135 121" version="1.1" xmlns="http://www.w3.org/2000/svg" xmlns:xlink="http://www.w3.org/1999/xlink">
    <title>审签中</title>
    <g id="图标标识" stroke="none" stroke-width="1" fill="none" fill-rule="evenodd">
        <g id="WiNEX6.0-标识-Sign-&amp;-状态戳-Status-Stamp" transform="translate(-625.000000, -2879.000000)" fill="#2D5AFA">
            <path d="M750.865982,2952.82931 C746.074059,2973.81513 730.116845,2991.51651 707.877538,2997.47552 C685.638232,3003.43452 662.968188,2996.08328 648.325352,2980.30499 L652.740849,2979.12158 C666.425805,2992.78302 686.821052,2998.97648 706.842262,2993.61181 C726.863472,2988.24715 741.429544,2972.68583 746.450341,2954.01219 L750.865982,2952.82931 Z M732.381032,2957.78182 C727.114751,2969.30918 716.933997,2978.48443 703.736434,2982.0207 C690.53887,2985.55698 677.134455,2982.70136 666.810039,2975.35151 L670.66696,2974.31835 C679.964546,2980.1086 691.545291,2982.18148 702.959976,2979.12293 C714.374662,2976.06437 723.367442,2968.47883 728.524259,2958.81553 L732.381032,2957.78182 Z M748.732449,2902.67111 L759.08521,2941.30814 C759.656978,2943.442 758.390648,2945.63535 756.256783,2946.20712 L640.345684,2977.26541 C638.21182,2977.83717 636.018472,2976.57084 635.446705,2974.43698 L625.093943,2935.79994 C624.522176,2933.66608 625.788505,2931.47273 627.92237,2930.90097 L743.833469,2899.84268 C745.967333,2899.27091 748.160681,2900.53724 748.732449,2902.67111 Z M744.351107,2901.77453 L628.440008,2932.83282 C627.421573,2933.10571 626.798367,2934.11735 626.992461,2935.13671 L627.025794,2935.28231 L637.378556,2973.91934 C637.651445,2974.93778 638.663091,2975.56098 639.68245,2975.36689 L639.828046,2975.33355 L755.739145,2944.27527 C756.75758,2944.00238 757.380786,2942.99073 757.186692,2941.97137 L757.153359,2941.82578 L746.800597,2903.18875 C746.514713,2902.12181 745.418039,2901.48865 744.351107,2901.77453 Z M656.790597,2941.36115 L657.442821,2943.79528 L666.367976,2941.4038 L670.188145,2955.66086 L666.681834,2956.60038 L666.363486,2955.41229 L660.944643,2956.86426 L662.210268,2961.58764 L658.617024,2962.55045 L657.351399,2957.82707 L651.845621,2959.30234 L652.202792,2960.63531 L648.870347,2961.52824 L645.011356,2947.12629 L653.849577,2944.75809 L653.197353,2942.32396 L656.790597,2941.36115 Z M655.984834,2952.72698 L650.479057,2954.20225 L651.04587,2956.31763 L656.551648,2954.84236 L655.984834,2952.72698 Z M699.797557,2939.58977 L703.131116,2939.6283 C702.894317,2941.99006 702.445385,2944.71925 701.908963,2947.006 L701.908963,2947.006 L707.617585,2945.47638 L708.432865,2948.51905 L683.280156,2955.2587 L682.464876,2952.21603 L698.199808,2947.99987 C699.039456,2945.56975 699.603741,2942.34378 699.797557,2939.58977 L699.797557,2939.58977 Z M664.996922,2950.3122 L659.578078,2951.76417 L660.144892,2953.87955 L665.563736,2952.42758 L664.996922,2950.3122 Z M654.649328,2947.7428 L649.14355,2949.21807 L649.710364,2951.33345 L655.216141,2949.85818 L654.649328,2947.7428 Z M686.139737,2943.55996 C687.615673,2944.77951 689.499935,2946.47976 690.38647,2947.70196 L690.38647,2947.70196 L687.832414,2949.87711 C686.982622,2948.67613 685.183212,2946.82891 683.712961,2945.51466 L683.712961,2945.51466 Z M663.661416,2945.32802 L658.242572,2946.78 L658.809385,2948.89537 L664.228229,2947.4434 L663.661416,2945.32802 Z M693.151802,2941.21521 C694.542884,2942.58173 696.286418,2944.56816 697.101549,2945.8716 L697.101549,2945.8716 L694.514354,2947.80717 C693.764944,2946.51717 692.092814,2944.4495 690.728628,2942.95153 L690.728628,2942.95153 Z M654.214024,2934.4112 C654.962877,2935.23547 655.949793,2936.36865 656.464744,2937.13136 L656.464744,2937.13136 L666.288209,2934.49917 L667.740184,2939.91802 L664.117962,2940.88859 L663.543384,2938.74423 L645.895919,2943.47286 L646.470497,2945.61721 L643.05112,2946.53343 L641.599145,2941.11459 L652.320922,2938.2417 C651.866008,2937.58713 651.345373,2936.91912 650.884775,2936.35926 L650.884775,2936.35926 Z M702.104181,2924.43644 L702.834051,2927.16035 L698.574318,2928.30174 C699.489273,2929.05044 700.398544,2929.89385 700.948157,2930.55409 L700.948157,2930.55409 L697.83104,2932.13472 C697.242605,2931.32958 696.09527,2930.17727 694.981074,2929.26455 L694.981074,2929.26455 L693.329341,2929.70713 C693.052046,2930.52683 692.714716,2931.23838 692.332878,2931.89974 L692.332878,2931.89974 L693.055799,2932.04768 C692.957498,2932.26037 692.830219,2932.48082 692.702939,2932.70128 C695.887598,2934.2705 701.102224,2934.95415 705.776525,2934.66448 C705.251879,2935.48834 704.687444,2936.97508 704.448973,2937.93967 C702.375464,2937.96728 700.203096,2937.74185 698.136795,2937.3327 L698.136795,2937.3327 L698.649257,2939.24524 L686.739391,2942.43647 L686.250223,2940.61087 C684.686538,2941.96161 683.012626,2943.24871 681.299892,2944.39092 C680.640052,2943.66703 679.562599,2942.77552 678.607298,2942.22397 C683.22654,2939.52651 687.983315,2935.48775 689.966954,2931.41559 L689.966954,2931.41559 L691.675677,2931.76526 C690.819235,2931.46675 689.692148,2931.08547 688.990439,2930.90079 L688.990439,2930.90079 L689.011653,2930.86405 L685.708186,2931.74921 C686.470488,2932.50776 687.174834,2933.28184 687.571793,2933.95193 L687.571793,2933.95193 L684.733086,2935.64431 C684.239349,2934.84485 683.265881,2933.64596 682.317787,2932.65766 L682.317787,2932.65766 L681.970053,2932.75084 C681.504478,2934.49062 680.978866,2936.12226 680.331102,2937.41392 C679.553829,2937.06314 677.929958,2936.56651 677.009877,2936.37823 C678.325095,2934.1002 679.2159,2930.8178 679.368813,2927.79523 L679.368813,2927.79523 L682.810518,2927.77372 C682.755201,2928.37865 682.67867,2929.02032 682.573161,2929.66976 L682.573161,2929.66976 L688.861338,2927.98485 L689.443681,2930.15818 C690.355849,2928.57826 690.904197,2926.56783 691.046856,2924.66611 L691.046856,2924.66611 L694.509775,2924.60786 C694.462222,2925.24176 694.356713,2925.8912 694.222227,2926.5484 L694.222227,2926.5484 L702.104181,2924.43644 Z M726.085147,2915.52609 L727.428417,2920.53925 L737.599616,2917.81388 L741.474137,2932.27379 L737.851916,2933.24437 L737.463687,2931.79548 L730.91471,2933.55027 L733.337256,2942.59134 L729.686057,2943.56967 L727.26351,2934.52861 L720.743511,2936.27563 L721.170562,2937.86941 L717.693229,2938.80116 L713.779885,2924.19636 L723.777218,2921.51759 L722.433947,2916.50443 L726.085147,2915.52609 Z M691.314236,2934.93687 C690.342032,2936.40865 689.128161,2937.78989 687.833041,2939.09972 L687.833041,2939.09972 L696.207618,2936.85576 C694.460072,2936.36121 692.805143,2935.74866 691.314236,2934.93687 Z M724.685673,2924.90799 L718.165673,2926.65501 L719.835056,2932.88524 L726.355055,2931.13821 L724.685673,2924.90799 Z M734.885849,2922.17486 L728.336872,2923.92965 L730.006255,2930.15987 L736.555232,2928.40508 L734.885849,2922.17486 Z M736.372208,2898.73577 L731.956757,2899.91917 C718.271795,2886.25716 697.876136,2880.06335 677.854529,2885.42812 C657.832922,2890.7929 643.266669,2906.35472 638.246151,2925.02886 L633.830557,2926.21172 C638.622174,2905.22543 654.579557,2887.52353 676.819253,2881.56442 C699.058949,2875.60531 721.729398,2882.95691 736.372208,2898.73577 Z M717.887806,2903.68918 L714.030988,2904.72231 C704.733206,2898.93151 693.151973,2896.85833 681.736815,2899.91701 C670.321656,2902.97569 661.328604,2910.56173 656.171891,2920.22561 L652.315222,2921.2593 C657.581348,2909.73138 667.762345,2900.55563 680.960358,2897.01923 C694.15837,2893.48284 707.563248,2896.33877 717.887806,2903.68918 Z" id="审签中"></path>
        </g>
    </g>
</svg>