<?xml version="1.0" encoding="UTF-8"?>
<svg width="135px" height="121px" viewBox="0 0 135 121" version="1.1" xmlns="http://www.w3.org/2000/svg" xmlns:xlink="http://www.w3.org/1999/xlink">
    <title>审签驳回</title>
    <g id="图标标识" stroke="none" stroke-width="1" fill="none" fill-rule="evenodd">
        <g id="WiNEX6.0-标识-Sign-&amp;-状态戳-Status-Stamp" transform="translate(-285.000000, -3053.000000)" fill="#FF8C00">
            <path d="M410.865982,3126.82931 C406.074059,3147.81513 390.116845,3165.51651 367.877538,3171.47552 C345.638232,3177.43452 322.968188,3170.08328 308.325352,3154.30499 L312.740849,3153.12158 C326.425805,3166.78302 346.821052,3172.97648 366.842262,3167.61181 C386.863472,3162.24715 401.429544,3146.68583 406.450341,3128.01219 L410.865982,3126.82931 Z M392.381032,3131.78182 C387.114751,3143.30918 376.933997,3152.48443 363.736434,3156.0207 C350.53887,3159.55698 337.134455,3156.70136 326.810039,3149.35151 L330.66696,3148.31835 C339.964546,3154.1086 351.545291,3156.18148 362.959976,3153.12293 C374.374662,3150.06437 383.367442,3142.47883 388.524259,3132.81553 L392.381032,3131.78182 Z M408.991268,3077.63703 L419.344029,3116.27407 C419.915797,3118.40793 418.649467,3120.60128 416.515602,3121.17305 L300.604503,3152.23133 C298.470639,3152.8031 296.277291,3151.53677 295.705524,3149.4029 L285.352762,3110.76587 C284.780995,3108.63201 286.047325,3106.43866 288.181189,3105.86689 L404.092288,3074.80861 C406.226152,3074.23684 408.4195,3075.50317 408.991268,3077.63703 Z M404.609926,3076.74046 L288.698827,3107.79874 C287.680392,3108.07163 287.057186,3109.08328 287.25128,3110.10264 L287.284613,3110.24823 L297.637375,3148.88527 C297.910264,3149.9037 298.92191,3150.52691 299.941269,3150.33281 L300.086865,3150.29948 L415.997964,3119.24119 C417.016399,3118.96831 417.639605,3117.95666 417.445511,3116.9373 L417.412178,3116.7917 L407.059416,3078.15467 C406.773532,3077.08774 405.676858,3076.45457 404.609926,3076.74046 Z M308.891724,3117.54249 L309.543948,3119.97662 L318.469103,3117.58513 L322.289272,3131.8422 L318.782961,3132.78171 L318.464614,3131.59362 L313.04577,3133.04559 L314.311395,3137.76897 L310.718151,3138.73178 L309.452526,3134.0084 L303.946749,3135.48367 L304.303919,3136.81665 L300.971475,3137.70957 L297.112483,3123.30762 L305.950704,3120.93943 L305.29848,3118.50529 L308.891724,3117.54249 Z M345.32073,3117.53366 L348.654289,3117.57219 C348.417489,3119.93395 347.968558,3122.66314 347.432136,3124.94989 L347.432136,3124.94989 L353.140757,3123.42027 L353.956037,3126.46294 L328.803329,3133.20259 L327.988049,3130.15992 L343.72298,3125.94376 C344.562629,3123.51364 345.126914,3120.28767 345.32073,3117.53366 L345.32073,3117.53366 Z M308.085962,3128.90831 L302.580184,3130.38358 L303.146998,3132.49896 L308.652775,3131.02369 L308.085962,3128.90831 Z M317.098049,3126.49353 L311.679206,3127.94551 L312.246019,3130.06088 L317.664863,3128.60891 L317.098049,3126.49353 Z M331.66291,3121.50385 C333.138846,3122.7234 335.023108,3124.42366 335.909643,3125.64585 L335.909643,3125.64585 L333.355587,3127.821 C332.505794,3126.62002 330.706385,3124.7728 329.236134,3123.45855 L329.236134,3123.45855 Z M306.750455,3123.92414 L301.244678,3125.3994 L301.811492,3127.51478 L307.317269,3126.03951 L306.750455,3123.92414 Z M338.674974,3119.1591 C340.066057,3120.52562 341.809591,3122.51205 342.624722,3123.81549 L342.624722,3123.81549 L340.037527,3125.75106 C339.288117,3124.46106 337.615986,3122.39339 336.251801,3120.89542 L336.251801,3120.89542 Z M360.737642,3097.87357 C361.606308,3101.92686 362.638588,3107.0544 363.079238,3110.32168 L363.079238,3110.32168 L365.049726,3109.79369 C365.049726,3109.79369 365.253686,3110.67079 365.325647,3111.05526 C366.225372,3115.22446 366.744633,3117.97375 366.891752,3119.79782 C369.079499,3118.34199 370.86308,3116.6528 372.192305,3114.77478 C370.016185,3113.0285 368.044432,3110.88582 366.30034,3108.43367 L366.30034,3108.43367 L369.117834,3106.77803 C370.430305,3108.66255 372.030473,3110.34575 373.844855,3111.7852 C374.706274,3109.78406 375.179056,3107.60754 375.218696,3105.20543 L375.218696,3105.20543 L378.810974,3105.05039 C378.617716,3108.27012 377.915749,3111.09817 376.76511,3113.64268 C378.865107,3114.75713 381.156024,3115.54091 383.591272,3115.82013 C382.958479,3116.70403 382.235707,3118.29532 381.947045,3119.30441 C379.472974,3118.8803 377.150999,3117.98061 375.012178,3116.72127 C373.463057,3118.93774 371.50977,3120.92086 369.086597,3122.65719 C368.633763,3122.1263 367.724492,3121.2829 366.964271,3120.64802 C366.978834,3121.51375 366.894539,3122.12645 366.711385,3122.48611 C366.30473,3123.40258 365.700358,3123.81299 364.804128,3124.17737 C364.073999,3124.46618 362.798977,3124.80782 361.421493,3125.1148 C361.138364,3124.28997 360.516791,3123.24525 359.814525,3122.59485 C361.091628,3122.37688 362.258503,3122.09528 362.780103,3121.95552 C363.21477,3121.83905 363.460041,3121.71121 363.672173,3121.34379 C364.038481,3120.62447 363.798188,3118.45266 362.700187,3113.31167 L362.700187,3113.31167 L358.034766,3114.56176 L358.04253,3114.59074 L355.028842,3115.39826 C354.677764,3112.69708 353.839598,3108.29398 353.078113,3104.98844 L353.078113,3104.98844 L356.159602,3104.31805 C356.693834,3106.65956 357.228624,3109.4668 357.610203,3111.81816 L357.610203,3111.81816 L360.160247,3111.13488 C359.803485,3108.5284 359.145985,3104.91547 358.442455,3101.59439 L358.442455,3101.59439 L351.516767,3103.45013 L350.74031,3100.55235 Z M315.762543,3121.50935 L310.343699,3122.96133 L310.910513,3125.07671 L316.329357,3123.62473 L315.762543,3121.50935 Z M306.315151,3110.59254 C307.064004,3111.41681 308.050921,3112.54999 308.565871,3113.3127 L308.565871,3113.3127 L318.389337,3110.68051 L319.841312,3116.09935 L316.21909,3117.06992 L315.644512,3114.92557 L297.997047,3119.65419 L298.571625,3121.79855 L295.152248,3122.71476 L293.700273,3117.29592 L304.422049,3114.42303 C303.967135,3113.76847 303.446501,3113.10045 302.985902,3112.54059 L302.985902,3112.54059 Z M347.627354,3102.38033 L348.357224,3105.10424 L344.097491,3106.24563 C345.012446,3106.99434 345.921717,3107.83774 346.471329,3108.49798 L346.471329,3108.49798 L343.354213,3110.07861 C342.765778,3109.27348 341.618443,3108.12116 340.504247,3107.20844 L340.504247,3107.20844 L338.852514,3107.65102 C338.575219,3108.47072 338.237888,3109.18227 337.856051,3109.84363 L337.856051,3109.84363 L338.578972,3109.99157 C338.480671,3110.20426 338.353391,3110.42471 338.226112,3110.64517 C341.410771,3112.21439 346.625396,3112.89804 351.299698,3112.60837 C350.775052,3113.43223 350.210617,3114.91897 349.972145,3115.88356 C347.898637,3115.91117 345.726269,3115.68574 343.659968,3115.27659 L343.659968,3115.27659 L344.172429,3117.18913 L332.262564,3120.38037 L331.773396,3118.55477 C330.209711,3119.9055 328.535799,3121.1926 326.823064,3122.33481 C326.163225,3121.61092 325.085771,3120.71941 324.13047,3120.16787 C328.749713,3117.4704 333.506488,3113.43164 335.490126,3109.35948 L335.490126,3109.35948 L337.198849,3109.70915 C336.342407,3109.41064 335.21532,3109.02936 334.513612,3108.84468 L334.513612,3108.84468 L334.534825,3108.80794 L331.231359,3109.6931 C331.993661,3110.45165 332.698007,3111.22573 333.094965,3111.89582 L333.094965,3111.89582 L330.256258,3113.5882 C329.762521,3112.78875 328.789053,3111.58985 327.840959,3110.60156 L327.840959,3110.60156 L327.493226,3110.69473 C327.02765,3112.43451 326.502039,3114.06615 325.854275,3115.35781 C325.077001,3115.00703 323.453131,3114.5104 322.533049,3114.32212 C323.848268,3112.04409 324.739073,3108.76169 324.891985,3105.73912 L324.891985,3105.73912 L328.333691,3105.71761 C328.278373,3106.32254 328.201842,3106.96421 328.096334,3107.61365 L328.096334,3107.61365 L334.384511,3105.92874 L334.966854,3108.10207 C335.879022,3106.52215 336.42737,3104.51172 336.570028,3102.61 L336.570028,3102.61 L340.032947,3102.55175 C339.985394,3103.18565 339.879886,3103.83509 339.745399,3104.49229 L339.745399,3104.49229 L347.627354,3102.38033 Z M361.694437,3115.81736 L362.630754,3118.26854 C360.417633,3119.51377 358.073071,3120.7321 356.089691,3121.79154 L356.089691,3121.79154 L354.845986,3119.23636 C356.644131,3118.41291 359.154795,3117.11902 361.694437,3115.81736 L361.694437,3115.81736 Z M404.899213,3085.57464 L411.887328,3111.65464 L408.120217,3112.66403 L407.708695,3111.12821 L390.293052,3115.79472 L390.704574,3117.33054 L387.11133,3118.29335 L380.123216,3092.21335 L404.899213,3085.57464 Z M336.837409,3112.88077 C335.865205,3114.35254 334.651334,3115.73378 333.356214,3117.04361 L333.356214,3117.04361 L341.73079,3114.79965 C339.983244,3114.3051 338.328316,3113.69255 336.837409,3112.88077 Z M402.07938,3090.11932 L384.663738,3094.78583 L389.431184,3112.57818 L406.846827,3107.91168 L402.07938,3090.11932 Z M400.184756,3094.29186 L403.135293,3105.30342 L391.312361,3108.47136 L388.361823,3097.45981 L400.184756,3094.29186 Z M372.694503,3093.5827 L376.250597,3093.87218 C375.663426,3095.73772 374.842353,3097.5417 373.829803,3099.21063 C375.813332,3099.89042 377.61523,3100.58782 379.022807,3101.20452 L379.022807,3101.20452 L377.548286,3104.39487 C376.065143,3103.61206 374.042791,3102.78738 371.883315,3102.0305 C370.237415,3104.11761 368.347767,3105.9905 366.285776,3107.56794 C365.614569,3107.03345 364.061545,3105.98984 363.16628,3105.54644 C365.145499,3104.23965 366.960139,3102.66638 368.48084,3100.92341 C366.696552,3100.40764 364.898815,3099.95759 363.219069,3099.60016 L363.219069,3099.60016 L364.72881,3096.77308 C366.561209,3097.12067 368.585084,3097.6033 370.574298,3098.18839 C371.517524,3096.72438 372.255825,3095.19104 372.694503,3093.5827 L372.694503,3093.5827 Z M397.514938,3098.2373 L392.41485,3099.60387 L393.758121,3104.61702 L398.858209,3103.25046 L397.514938,3098.2373 Z M396.372208,3072.73577 L391.956757,3073.91917 C378.271795,3060.25716 357.876136,3054.06335 337.854529,3059.42812 C317.832922,3064.7929 303.266669,3080.35472 298.246151,3099.02886 L293.830557,3100.21172 C298.622174,3079.22543 314.579557,3061.52353 336.819253,3055.56442 C359.058949,3049.60531 381.729398,3056.95691 396.372208,3072.73577 Z M377.887806,3077.68918 L374.030988,3078.72231 C364.733206,3072.93151 353.151973,3070.85833 341.736815,3073.91701 C330.321656,3076.97569 321.328604,3084.56173 316.171891,3094.22561 L312.315222,3095.2593 C317.581348,3083.73138 327.762345,3074.55563 340.960358,3071.01923 C354.15837,3067.48284 367.563248,3070.33877 377.887806,3077.68918 Z" id="审签驳回"></path>
        </g>
    </g>
</svg>