<?xml version="1.0" encoding="UTF-8"?>
<svg width="135px" height="121px" viewBox="0 0 135 121" version="1.1" xmlns="http://www.w3.org/2000/svg" xmlns:xlink="http://www.w3.org/1999/xlink">
    <title>审签通过</title>
    <g id="图标标识" stroke="none" stroke-width="1" fill="none" fill-rule="evenodd">
        <g id="WiNEX6.0-标识-Sign-&amp;-状态戳-Status-Stamp" transform="translate(-101.000000, -3053.000000)" fill="#00AB44">
            <path d="M226.865982,3126.82931 C222.074059,3147.81513 206.116845,3165.51651 183.877538,3171.47552 C161.638232,3177.43452 138.968188,3170.08328 124.325352,3154.30499 L128.740849,3153.12158 C142.425805,3166.78302 162.821052,3172.97648 182.842262,3167.61181 C202.863472,3162.24715 217.429544,3146.68583 222.450341,3128.01219 L226.865982,3126.82931 Z M208.381032,3131.78182 C203.114751,3143.30918 192.933997,3152.48443 179.736434,3156.0207 C166.53887,3159.55698 153.134455,3156.70136 142.810039,3149.35151 L146.66696,3148.31835 C155.964546,3154.1086 167.545291,3156.18148 178.959976,3153.12293 C190.374662,3150.06437 199.367442,3142.47883 204.524259,3132.81553 L208.381032,3131.78182 Z M224.991268,3077.63703 L235.344029,3116.27407 C235.915797,3118.40793 234.649467,3120.60128 232.515602,3121.17305 L116.604503,3152.23133 C114.470639,3152.8031 112.277291,3151.53677 111.705524,3149.4029 L101.352762,3110.76587 C100.780995,3108.63201 102.047325,3106.43866 104.181189,3105.86689 L220.092288,3074.80861 C222.226152,3074.23684 224.4195,3075.50317 224.991268,3077.63703 Z M220.609926,3076.74046 L104.698827,3107.79874 C103.680392,3108.07163 103.057186,3109.08328 103.25128,3110.10264 L103.284613,3110.24823 L113.637375,3148.88527 C113.910264,3149.9037 114.92191,3150.52691 115.941269,3150.33281 L116.086865,3150.29948 L231.997964,3119.24119 C233.016399,3118.96831 233.639605,3117.95666 233.445511,3116.9373 L233.412178,3116.7917 L223.059416,3078.15467 C222.773532,3077.08774 221.676858,3076.45457 220.609926,3076.74046 Z M124.919118,3117.72056 L125.571342,3120.15469 L134.496497,3117.7632 L138.316666,3132.02027 L134.810355,3132.95978 L134.492008,3131.77169 L129.073164,3133.22367 L130.338789,3137.94705 L126.745545,3138.90985 L125.47992,3134.18648 L119.974142,3135.66174 L120.331313,3136.99472 L116.998869,3137.88765 L113.139877,3123.48569 L121.978098,3121.1175 L121.325874,3118.68337 L124.919118,3117.72056 Z M161.348123,3117.71174 L164.681682,3117.75026 C164.444883,3120.11203 163.995951,3122.84121 163.459529,3125.12797 L163.459529,3125.12797 L169.168151,3123.59835 L169.983431,3126.64101 L144.830722,3133.38066 L144.015442,3130.338 L159.750374,3126.12183 C160.590023,3123.69171 161.154308,3120.46574 161.348123,3117.71174 L161.348123,3117.71174 Z M124.113355,3129.08639 L118.607578,3130.56166 L119.174391,3132.67703 L124.680169,3131.20176 L124.113355,3129.08639 Z M133.125443,3126.67161 L127.706599,3128.12358 L128.273413,3130.23896 L133.692257,3128.78698 L133.125443,3126.67161 Z M147.690304,3121.68192 C149.166239,3122.90148 151.050501,3124.60173 151.937036,3125.82392 L151.937036,3125.82392 L149.38298,3127.99908 C148.533188,3126.7981 146.733778,3124.95088 145.263527,3123.63662 L145.263527,3123.63662 Z M122.777849,3124.10221 L117.272072,3125.57748 L117.838885,3127.69286 L123.344662,3126.21759 L122.777849,3124.10221 Z M175.728416,3108.67182 L178.45378,3118.84302 C178.966093,3119.01632 179.588632,3119.25327 180.35606,3119.4514 C182.571412,3120.06907 185.197021,3119.55189 188.326621,3118.71332 C191.456221,3117.87474 196.19665,3116.32502 199.101635,3115.11182 C198.957861,3116.08209 198.876761,3117.74991 199.059507,3118.66375 C196.859277,3119.37754 192.095553,3120.84032 189.023909,3121.66337 C185.401687,3122.63394 182.969077,3122.94411 180.666793,3122.34973 C179.321332,3121.96485 178.132128,3121.35175 177.494617,3121.52257 C176.625284,3121.75551 175.663483,3123.84566 174.920055,3125.93942 L174.920055,3125.93942 L172.02822,3123.60845 C172.953837,3121.96281 174.036268,3120.55468 175.12702,3119.64124 L175.12702,3119.64124 L173.279052,3112.74453 L169.627853,3113.72287 L168.77375,3110.53531 L175.728416,3108.67182 Z M154.702368,3119.33717 C156.09345,3120.7037 157.836985,3122.69012 158.652115,3123.99356 L158.652115,3123.99356 L156.064921,3125.92913 C155.31551,3124.63914 153.64338,3122.57146 152.279195,3121.0735 L152.279195,3121.0735 Z M131.789937,3121.68743 L126.371093,3123.1394 L126.937906,3125.25478 L132.35675,3123.80281 L131.789937,3121.68743 Z M122.342545,3110.77061 C123.091398,3111.59488 124.078314,3112.72806 124.593265,3113.49077 L124.593265,3113.49077 L134.41673,3110.85858 L135.868705,3116.27742 L132.246483,3117.248 L131.671905,3115.10364 L114.02444,3119.83226 L114.599018,3121.97662 L111.179641,3122.89284 L109.727666,3117.47399 L120.449443,3114.6011 C119.994529,3113.94654 119.473894,3113.27853 119.013296,3112.71866 L119.013296,3112.71866 Z M163.654748,3102.5584 L164.384617,3105.28231 L160.124884,3106.42371 C161.03984,3107.17241 161.949111,3108.01581 162.498723,3108.67606 L162.498723,3108.67606 L159.381606,3110.25669 C158.793171,3109.45155 157.645836,3108.29924 156.53164,3107.38651 L156.53164,3107.38651 L154.879907,3107.82909 C154.602613,3108.64879 154.265282,3109.36035 153.883444,3110.02171 L153.883444,3110.02171 L154.606365,3110.16964 C154.508064,3110.38233 154.380785,3110.60279 154.253506,3110.82324 C157.438164,3112.39246 162.65279,3113.07611 167.327091,3112.78644 C166.802445,3113.6103 166.238011,3115.09705 165.999539,3116.06164 C163.92603,3116.08924 161.753663,3115.86381 159.687361,3115.45467 L159.687361,3115.45467 L160.199823,3117.3672 L148.289957,3120.55844 L147.800789,3118.73284 C146.237105,3120.08358 144.563193,3121.37067 142.850458,3122.51288 C142.190619,3121.78899 141.113165,3120.89748 140.157864,3120.34594 C144.777106,3117.64848 149.533881,3113.60972 151.51752,3109.53756 L151.51752,3109.53756 L153.226243,3109.88722 C152.369801,3109.58871 151.242714,3109.20743 150.541006,3109.02276 L150.541006,3109.02276 L150.562219,3108.98601 L147.258752,3109.87118 C148.021054,3110.62972 148.7254,3111.4038 149.122359,3112.07389 L149.122359,3112.07389 L146.283652,3113.76627 C145.789915,3112.96682 144.816447,3111.76792 143.868353,3110.77963 L143.868353,3110.77963 L143.520619,3110.8728 C143.055044,3112.61259 142.529432,3114.24422 141.881668,3115.53589 C141.104395,3115.18511 139.480524,3114.68847 138.560443,3114.50019 C139.875661,3112.22217 140.766467,3108.93977 140.919379,3105.9172 L140.919379,3105.9172 L144.361084,3105.89569 C144.305767,3106.50061 144.229236,3107.14229 144.123727,3107.79172 L144.123727,3107.79172 L150.411905,3106.10681 L150.994247,3108.28014 C151.906415,3106.70022 152.454763,3104.6898 152.597422,3102.78807 L152.597422,3102.78807 L156.060341,3102.72982 C156.012788,3103.36373 155.907279,3104.01316 155.772793,3104.67037 L155.772793,3104.67037 L163.654748,3102.5584 Z M189.713382,3093.86781 L192.184407,3094.97602 C191.108218,3096.75518 189.620656,3098.73775 188.018705,3100.40932 C188.639164,3100.52259 189.23841,3100.67261 189.735193,3100.78796 L189.735193,3100.78796 L189.692767,3100.86144 L193.575788,3099.82099 L196.774792,3111.75984 C197.155256,3113.17975 197.080806,3113.94509 196.27775,3114.6572 C195.511437,3115.39053 194.236415,3115.73217 192.526726,3116.19028 C192.156664,3115.38875 191.513877,3114.38077 190.935287,3113.72828 L190.935287,3113.72828 L191.336924,3113.63217 C191.870739,3113.50217 192.38616,3113.36841 192.744055,3113.27396 L192.744055,3113.27396 L193.072895,3113.18656 L193.145363,3113.16715 C193.485332,3113.045 193.541207,3112.9058 193.463561,3112.61602 L193.463561,3112.61602 L193.106391,3111.28304 L189.687013,3112.19926 L190.820641,3116.43002 L187.748997,3117.25306 L186.615369,3113.02231 L183.282925,3113.91523 L184.447611,3118.2619 L181.2021,3119.13153 L177.203346,3104.20798 L183.520501,3102.5153 C181.929769,3102.25825 180.31006,3102.00897 178.895275,3101.82901 L178.895275,3101.82901 L180.637396,3099.40554 C181.847255,3099.51617 183.356738,3099.70182 184.808264,3099.90299 C185.516622,3099.18519 186.209451,3098.40944 186.807582,3097.62801 L186.807582,3097.62801 L176.462516,3100.39996 L175.763705,3097.79196 L189.064503,3094.22802 L189.713382,3093.86781 Z M204.699949,3100.53622 L207.363197,3110.4756 C207.904487,3110.64114 208.54824,3110.84135 209.315668,3111.03947 C211.588975,3111.64161 214.330496,3111.09338 217.518051,3110.23927 C220.531739,3109.43176 225.185235,3107.90533 227.95878,3106.66523 C227.795873,3107.79592 227.697721,3109.74784 227.911526,3110.77759 C225.950882,3111.45823 221.274092,3112.89772 218.318359,3113.68971 C214.638182,3114.67581 212.081896,3114.98806 209.655936,3114.39577 C208.10763,3114.06524 206.844942,3113.40971 206.207431,3113.58053 C205.367076,3113.8057 204.61228,3116.08885 204.056167,3118.0703 L204.056167,3118.0703 L200.682521,3115.21621 C201.664013,3113.43137 202.78887,3111.94975 203.887387,3111.06529 L203.887387,3111.06529 L202.171417,3104.66121 L198.809995,3105.5619 L197.948128,3102.34536 L204.699949,3100.53622 Z M152.864802,3113.05884 C151.892598,3114.53061 150.678727,3115.91185 149.383607,3117.22168 L149.383607,3117.22168 L157.758184,3114.97772 C156.010638,3114.48317 154.355709,3113.87063 152.864802,3113.05884 Z M185.5128,3108.90746 L182.180356,3109.80039 L182.615172,3111.42314 L185.947616,3110.53022 L185.5128,3108.90746 Z M192.003822,3107.1682 L188.584444,3108.08442 L189.01926,3109.70717 L192.438638,3108.79095 L192.003822,3107.1682 Z M217.797973,3085.78351 L219.071362,3090.53587 L222.635629,3089.58083 L223.505261,3092.82634 L219.940994,3093.78138 L222.487774,3103.28609 C223.023529,3105.28556 222.837329,3106.32931 221.673091,3107.20032 C220.574574,3108.08477 218.598401,3108.70746 215.903468,3109.42957 C215.486819,3108.45417 214.553697,3107.05811 213.804844,3106.23384 C215.341284,3105.89839 217.017318,3105.46316 217.893421,3105.23092 L217.893421,3105.23092 L218.348671,3105.1095 C218.949439,3104.91747 219.105696,3104.68925 218.973698,3104.19663 L218.973698,3104.19663 L216.434684,3094.72089 L205.683929,3097.60155 L204.814297,3094.35604 L215.565052,3091.47538 L214.291662,3086.72303 L217.797973,3085.78351 Z M184.449054,3104.93751 L181.11661,3105.83043 L181.535896,3107.39523 L184.868341,3106.50231 L184.449054,3104.93751 Z M168.789906,3099.81588 C170.856765,3100.69074 173.776462,3102.08249 175.248237,3103.0547 L175.248237,3103.0547 L173.392843,3106.09863 C171.984708,3105.0162 169.136415,3103.5432 167.022968,3102.49446 L167.022968,3102.49446 Z M190.940075,3103.19824 L187.520698,3104.11446 L187.939985,3105.67926 L191.359362,3104.76304 L190.940075,3103.19824 Z M209.582072,3097.89255 C211.481306,3099.18503 213.964814,3101.0353 215.224456,3102.37493 L215.224456,3102.37493 L212.750127,3104.96354 C211.577418,3103.60062 209.149785,3101.61114 207.240706,3100.16601 L207.240706,3100.16601 Z M212.372208,3072.73577 L207.956757,3073.91917 C194.271795,3060.25716 173.876136,3054.06335 153.854529,3059.42812 C133.832922,3064.7929 119.266669,3080.35472 114.246151,3099.02886 L109.830557,3100.21172 C114.622174,3079.22543 130.579557,3061.52353 152.819253,3055.56442 C175.058949,3049.60531 197.729398,3056.95691 212.372208,3072.73577 Z M198.395347,3091.72783 C200.377353,3092.74967 202.854619,3094.22891 204.083203,3095.45262 L204.083203,3095.45262 L201.750159,3098.22078 C200.587295,3097.01052 198.179352,3095.32635 196.210795,3094.23879 L196.210795,3094.23879 Z M193.887806,3077.68918 L190.030988,3078.72231 C180.733206,3072.93151 169.151973,3070.85833 157.736815,3073.91701 C146.321656,3076.97569 137.328604,3084.56173 132.171891,3094.22561 L128.315222,3095.2593 C133.581348,3083.73138 143.762345,3074.55563 156.960358,3071.01923 C170.15837,3067.48284 183.563248,3070.33877 193.887806,3077.68918 Z" id="审签通过"></path>
        </g>
    </g>
</svg>