<?xml version="1.0" standalone="no"?><!DOCTYPE svg PUBLIC "-//W3C//DTD SVG 1.1//EN" "http://www.w3.org/Graphics/SVG/1.1/DTD/svg11.dtd"><svg t="1650943514883" class="icon" viewBox="0 0 1235 1024" version="1.1" xmlns="http://www.w3.org/2000/svg" p-id="75318" xmlns:xlink="http://www.w3.org/1999/xlink" width="241.2109375" height="200"><defs><style type="text/css">@font-face { font-family: feedback-iconfont; src: url("//at.alicdn.com/t/font_1031158_u69w8yhxdu.woff2?t=1630033759944") format("woff2"), url("//at.alicdn.com/t/font_1031158_u69w8yhxdu.woff?t=1630033759944") format("woff"), url("//at.alicdn.com/t/font_1031158_u69w8yhxdu.ttf?t=1630033759944") format("truetype"); }
</style></defs><path d="M738.007802 968.001587c188.974545-50.632992 320.520463-208.608264 346.619768-390.74486l35.35762-9.478347c-22.993455 201.12714-165.82876 377.356694-373.209917 432.923504-207.398083 55.56681-419.205289-25.633851-539.673389-188.314446l35.349157-9.478347c113.672463 144.697124 306.582215 215.73395 495.556761 165.092496z m-26.937124-97.914711c133.128463-35.670744 229.985322-139.145521 263.371107-263.311868l18.753587-5.018446c-32.454876 133.966281-135.218777 246.487802-277.740959 284.680463-142.522182 38.184198-287.777851-7.878876-382.874446-107.672331l18.753587-5.026909c91.000595 90.839802 226.608661 132.019835 359.737124 96.349091z m416.336396-672.28562a16.92562 16.92562 0 0 1 20.733885 11.974876l78.848 294.277289a16.92562 16.92562 0 0 1-11.974876 20.733885L103.297058 822.669752a16.92562 16.92562 0 0 1-20.733884-11.966413L3.715174 516.417587a16.92562 16.92562 0 0 1 11.966413-20.733885l1111.725487-297.882446z m-3.799801 18.542017L28.231934 509.850446a8.46281 8.46281 0 0 0-6.177851 9.393719l0.194644 0.964761 74.472728 277.935603a8.46281 8.46281 0 0 0 9.393719 6.177851l0.973223-0.194644 1095.375339-293.507174a8.46281 8.46281 0 0 0 6.177851-9.393719l-0.194645-0.96476-74.472727-277.935604a8.46281 8.46281 0 0 0-10.366942-5.983206z m-127.145256 148.056859l22.401057 10.02843c-8.953653 16.587107-21.512463 35.459174-34.672132 51.081521l2.496529 9.317553 58.122579-15.57157 7.294942 27.22486-58.122579 15.57157 8.208926 30.652297c3.943669 14.716826 3.528992 22.976529-5.830876 30.212232-9.249851 6.68562-23.585851 11.05243-43.270347 16.062413-3.215868-8.073521-9.672992-18.432-15.580033-25.786182a538.454744 538.454744 0 0 0 27.080991-6.482512l3.063538-0.803967 0.702413-0.194645c4.104463-1.35405 5.069223-2.674248 4.214479-5.856264l-8.014281-29.924496-62.286281 16.697124-7.303405-27.22486 62.286281-16.688661-4.595306-17.162578c6.35557-6.702545 12.677289-15.486942 18.440463-24.389818l-66.458446 17.805752-7.032595-26.234711 93.184-24.973752 5.670083-3.359736z m-320.30043 5.923967l13.929785 51.987041 21.334744-5.720859 7.489586 27.961124-21.326281 5.712397 30.152992 112.555372c4.146777 15.461554 2.987372 23.915901-5.077686 31.066975-7.760397 7.337256-21.478612 12.067967-41.095405 17.323372-3.393587-7.76886-11.653289-18.956694-18.169653-25.625389 13.625124-3.122777 26.615537-6.600992 30.965422-8.031206 4.417587-1.184793 5.492364-3.046612 4.442975-6.973356l-30.161454-112.555372-57.386314 15.368463-7.489587-27.952661 57.377851-15.376926-13.929785-51.987041 28.94281-7.760397z m186.063339-52.748694l32.37871-0.795504c-0.220033 8.995967-1.057851 17.628033-1.768727 26.759405l119.181752-31.938645 7.49805 27.961124-130.716562 35.019108c-3.605157 19.887603-8.88595 39.436694-16.197818 58.224132l31.803239 118.690909-29.42519 7.887339-22.934215-85.584397a215.886281 215.886281 0 0 1-18.195041 24.322116c-4.976132-6.812562-14.835306-18.10195-21.216264-24.271339 21.817124-24.508298 35.992331-56.954711 43.058776-90.391273l-53.950413 14.45448-7.489587-27.961124 66.458447-17.805753c1.032463-11.847934 1.641785-23.306579 1.514843-34.570578zM358.738512 467.460231l32.522579 121.390546-30.406876 8.149686-3.088926-11.526347-111.336727 29.831405 13.997488 52.232462c4.070612 15.207669 9.080595 16.231669 36.05157 9.00443l80.193587-21.495537c25.261488-6.761785 27.478744-14.192132 21.622479-50.734545 8.852099 2.623471 23.408132 3.977521 32.454876 3.393586 6.711008 47.620231-0.465455 63.995769-45.098314 75.953719l-81.16681 21.749422c-47.332496 12.685752-64.30043 7.244165-74.218843-29.789091L199.637686 561.346645l30.169917-8.081984 8.936728 33.343471 111.336727-29.822942-13.997488-52.240926-151.315041 40.545323-7.751934-28.94281 181.721917-48.686546z m214.811505 45.733025l5.720859 21.334744 38.006479-10.18076 6.973356 25.997752-38.014942 10.18076 6.634843 24.770645 42.314049-17.644959 8.285091 26.95405c-39.377455 16.857917-81.767669 34.265917-112.216859 47.154776l-11.120133-27.774942a1539.55438 1539.55438 0 0 0 45.208331-17.636496l-7.548827-28.198082-38.260363 10.248463-6.964893-25.997752 38.251901-10.24-5.712397-21.343207 28.443505-7.616529z m68.836495-30.533818c12.508033 15.317686 29.230545 35.543802 37.320992 48.085686l-23.272727 18.068099c-7.802711-13.413554-23.678942-34.39286-36.076959-50.260628z m-98.337851-79.575802l7.557289 28.206546 35.560728-9.529124 7.024132 26.234711-35.552265 9.529124 6.304794 23.543537 40.469157-10.832397 7.091835 26.480132-112.072992 30.02605-7.091835-26.488595 43.160331-11.560199-6.313256-23.543537-36.533951 9.791471-7.032595-26.23471 36.542413-9.791471-7.557289-28.206546 28.443504-7.616529zM483.92886 19.769124c207.38962-55.56681 419.205289 25.642314 539.673388 188.322909l-35.349157 9.478347C874.580628 72.864793 681.662413 1.819504 492.687868 52.452496c-188.974545 50.641455-320.520463 208.62519-346.619769 390.761785l-35.35762 9.478347C133.712397 251.57395 276.53924 75.344397 483.92886 19.769124zM513.946446 134.389421c142.522182-38.192661 287.777851 7.870413 382.874447 107.672331l-18.753587 5.026909c-90.992132-90.839802-226.608661-132.019835-359.745587-96.357554-133.128463 35.679207-229.985322 139.153983-263.362645 263.320331l-18.762049 5.026909c32.454876-133.974744 135.218777-246.504727 277.749421-284.688926z" fill="#EC0000" p-id="75319"></path></svg>