<?xml version="1.0" encoding="UTF-8"?>
<svg width="135px" height="121px" viewBox="0 0 135 121" version="1.1" xmlns="http://www.w3.org/2000/svg" xmlns:xlink="http://www.w3.org/1999/xlink">
    <title>已提交</title>
    <g id="图标标识" stroke="none" stroke-width="1" fill="none" fill-rule="evenodd">
        <g id="WiNEX6.0-标识-Sign-&amp;-状态戳-Status-Stamp" transform="translate(-448.000000, -2878.000000)" fill="#2D5AFA">
            <path d="M573.865982,2951.82931 C569.074059,2972.81513 553.116845,2990.51651 530.877538,2996.47552 C508.638232,3002.43452 485.968188,2995.08328 471.325352,2979.30499 L475.740849,2978.12158 C489.425805,2991.78302 509.821052,2997.97648 529.842262,2992.61181 C549.863472,2987.24715 564.429544,2971.68583 569.450341,2953.01219 L573.865982,2951.82931 Z M555.381032,2956.78182 C550.114751,2968.30918 539.933997,2977.48443 526.736434,2981.0207 C513.53887,2984.55698 500.134455,2981.70136 489.810039,2974.35151 L493.66696,2973.31835 C502.964546,2979.1086 514.545291,2981.18148 525.959976,2978.12293 C537.374662,2975.06437 546.367442,2967.47883 551.524259,2957.81553 L555.381032,2956.78182 Z M571.732449,2901.67111 L582.08521,2940.30814 C582.656978,2942.442 581.390648,2944.63535 579.256783,2945.20712 L463.345684,2976.26541 C461.21182,2976.83717 459.018472,2975.57084 458.446705,2973.43698 L448.093943,2934.79994 C447.522176,2932.66608 448.788505,2930.47273 450.92237,2929.90097 L566.833469,2898.84268 C568.967333,2898.27091 571.160681,2899.53724 571.732449,2901.67111 Z M567.351107,2900.77453 L451.440008,2931.83282 C450.421573,2932.10571 449.798367,2933.11735 449.992461,2934.13671 L450.025794,2934.28231 L460.378556,2972.91934 C460.651445,2973.93778 461.663091,2974.56098 462.68245,2974.36689 L462.828046,2974.33355 L578.739145,2943.27527 C579.75758,2943.00238 580.380786,2941.99073 580.186692,2940.97137 L580.153359,2940.82578 L569.800597,2902.18875 C569.514713,2901.12181 568.418039,2900.48865 567.351107,2900.77453 Z M486.3594,2933.32694 L490.202863,2947.67094 L486.609619,2948.63375 L486.244684,2947.27179 L473.088775,2950.79691 L474.742628,2956.96917 C475.224032,2958.7658 475.815513,2958.88683 479.003068,2958.03273 L479.003068,2958.03273 L488.4788,2955.49372 C491.463511,2954.69396 491.725277,2953.81631 491.03408,2949.49806 C492.079918,2949.80794 493.80001,2949.96821 494.868584,2949.89929 C495.661834,2955.5257 494.813864,2957.46112 489.539909,2958.87427 L489.539909,2958.87427 L479.948265,2961.44434 C474.355555,2962.94291 472.350812,2962.29986 471.178362,2957.92422 L471.178362,2957.92422 L467.560072,2944.42057 L471.124338,2943.46553 L472.18032,2947.40651 L485.336229,2943.88139 L483.682376,2937.70913 L465.803089,2942.49987 L464.886869,2939.08049 L486.3594,2933.32694 Z M504.615249,2926.69604 L506.082753,2932.17284 L508.980531,2931.39638 L509.834633,2934.58394 L506.936856,2935.36039 L508.086013,2939.6491 L510.507663,2938.25483 L511.802116,2941.23121 L508.978938,2942.98155 L510.788083,2949.73337 C511.215135,2951.32715 511.179507,2952.23738 510.449936,2952.99192 C509.735895,2953.80441 508.491931,2954.26196 506.629589,2954.72992 C506.317483,2953.91286 505.560308,2952.59389 504.884939,2951.81204 C505.347772,2951.70134 505.793211,2951.58959 506.177916,2951.48841 L506.177916,2951.48841 L506.540772,2951.39118 C506.880173,2951.29834 507.144394,2951.21994 507.290095,2951.16758 C507.637828,2951.07441 507.751659,2950.91968 507.650719,2950.54296 L507.650719,2950.54296 L506.097805,2944.74741 C505.211419,2945.26444 504.411967,2945.75818 503.633728,2946.21517 L503.633728,2946.21517 L501.958403,2943.09237 C502.889295,2942.62553 503.962996,2941.99619 505.181585,2941.32803 L505.181585,2941.32803 L503.807256,2936.19897 L500.677657,2937.03754 L499.823554,2933.84998 L502.953153,2933.01141 L501.485649,2927.53461 L504.615249,2926.69604 Z M528.147363,2933.49722 L528.892762,2936.27909 L521.822185,2938.17365 L522.505467,2940.72369 L528.040222,2939.24066 L528.762327,2941.93559 L523.227572,2943.41862 L524.120498,2946.75107 C524.802516,2946.63044 525.447791,2946.48859 526.172236,2946.29448 L526.172236,2946.29448 L527.656614,2945.89587 C529.126537,2945.5 531.127592,2944.95724 531.989004,2944.70482 C531.769665,2945.50899 531.752204,2947.06659 531.86923,2947.96698 L531.86923,2947.96698 L526.827098,2949.31801 C523.031009,2950.33517 519.917904,2950.42393 517.007902,2947.44561 C516.743648,2949.47309 516.140948,2951.28067 515.184274,2952.8104 C514.515147,2952.39958 512.923858,2951.67681 512.111923,2951.42849 C514.004616,2948.8715 514.330838,2945.33662 513.709523,2941.27917 L513.709523,2941.27917 L516.940062,2940.81731 C517.074697,2941.89934 517.164826,2942.93117 517.173706,2943.89159 C518.261562,2945.40148 519.381442,2946.21951 520.603227,2946.60648 L520.603227,2946.60648 L518.576674,2939.04328 L511.766897,2940.86795 L511.021498,2938.08609 L528.147363,2933.49722 Z M554.437969,2926.48373 L558.187062,2926.56621 C557.750056,2929.57172 556.819871,2932.24351 555.433248,2934.60279 C558.704282,2935.68299 562.515492,2935.99728 566.946045,2935.4934 C566.394502,2936.4487 565.876655,2938.10932 565.690455,2939.15307 C560.879029,2939.51054 556.860814,2939.00325 553.343951,2937.58516 C550.85465,2940.58154 547.51251,2943.06103 543.532302,2945.24563 C542.91697,2944.57193 541.491225,2943.30787 540.622858,2942.73303 C544.607227,2940.79579 547.837617,2938.5947 550.172742,2935.95022 C547.96612,2934.55375 545.948337,2932.70293 544.156135,2930.41896 L544.156135,2930.41896 L547.000526,2928.63188 C548.436673,2930.51432 550.187414,2932.064 552.200479,2933.20175 C553.432925,2931.19437 554.20325,2928.96917 554.437969,2926.48373 L554.437969,2926.48373 Z M523.662527,2922.55514 L526.341304,2932.55247 L512.084239,2936.37264 L509.405461,2926.37531 L523.662527,2922.55514 Z M543.452864,2924.08516 L547.126949,2924.46726 C545.839743,2927.54529 543.416719,2931.02084 541.256984,2933.27669 C540.433123,2932.75204 538.795247,2931.8554 537.857555,2931.48549 C540.087172,2929.49045 542.331202,2926.6219 543.452864,2924.08516 L543.452864,2924.08516 Z M521.98962,2929.52564 L514.194599,2931.61431 L514.590592,2933.09217 L522.385613,2931.0035 L521.98962,2929.52564 Z M521.00352,2925.84546 L513.208498,2927.93413 L513.596727,2929.38302 L521.391748,2927.29435 L521.00352,2925.84546 Z M554.736586,2920.87535 C557.686785,2921.91728 561.731489,2923.56664 563.822199,2924.99416 L563.822199,2924.99416 L561.464338,2928.01744 C559.563024,2926.60128 555.616621,2924.73923 552.532902,2923.54673 L552.532902,2923.54673 Z M547.662216,2914.75788 C548.778493,2915.79428 550.17734,2917.18978 550.849105,2918.19 L550.849105,2918.19 L550.769936,2918.24227 L561.028068,2915.49361 L561.928759,2918.85503 L536.51525,2925.66456 L535.61456,2922.30314 L546.915892,2919.27496 C546.253972,2918.4274 545.42387,2917.53172 544.669333,2916.80215 L544.669333,2916.80215 Z M559.372208,2897.73577 L554.956757,2898.91917 C541.271795,2885.25716 520.876136,2879.06335 500.854529,2884.42812 C480.832922,2889.7929 466.266669,2905.35472 461.246151,2924.02886 L456.830557,2925.21172 C461.622174,2904.22543 477.579557,2886.52353 499.819253,2880.56442 C522.058949,2874.60531 544.729398,2881.95691 559.372208,2897.73577 Z M540.887806,2902.68918 L537.030988,2903.72231 C527.733206,2897.93151 516.151973,2895.85833 504.736815,2898.91701 C493.321656,2901.97569 484.328604,2909.56173 479.171891,2919.22561 L475.315222,2920.2593 C480.581348,2908.73138 490.762345,2899.55563 503.960358,2896.01923 C517.15837,2892.48284 530.563248,2895.33877 540.887806,2902.68918 Z" id="已提交"></path>
        </g>
    </g>
</svg>