<?xml version="1.0" encoding="UTF-8"?>
<svg width="16px" height="17px" viewBox="0 0 16 17" version="1.1" xmlns="http://www.w3.org/2000/svg" xmlns:xlink="http://www.w3.org/1999/xlink">
    <title>形状备份 2</title>
    <g id="重医加急-V3" stroke="none" stroke-width="1" fill="none" fill-rule="evenodd">
        <g id="B03-病历目录-树状图模式-筛选结果显示（树状图展开该类目）" transform="translate(-185.000000, -391.000000)" fill="#2D5AFA" fill-rule="nonzero">
            <g id="左侧列表" transform="translate(128.000000, 152.000000)">
                <g id="列表-树" transform="translate(16.000000, 102.000000)">
                    <path d="M57,151.990196 C57,152.642448 56.4738742,153.172178 55.8180189,153.172178 L47.8864929,153.172178 C47.2342411,153.172178 46.7045118,152.646052 46.7045118,151.990196 C46.7045118,151.337945 47.2306375,150.808215 47.8864929,150.808215 L55.8180189,150.808215 C56.4702707,150.811819 57,151.337945 57,151.990196 Z M57,148.646055 C57,149.298306 56.4738742,149.828036 55.8180189,149.828036 L51.3171211,149.828036 C50.6648693,149.828036 50.13514,149.30191 50.13514,148.646055 C50.13514,147.993803 50.6612657,147.464074 51.3171211,147.464074 L55.8180189,147.464074 C56.4702707,147.467677 57,147.993803 57,148.646055 Z M52.2828862,142.70732 L44.5639727,151.384792 L41.2991101,152.058665 C41.1225337,152.094701 40.9747861,151.957764 41.0036149,151.777584 L41.4792902,148.487496 L49.1225281,139.900115 C49.2991045,139.70552 49.583789,139.669484 49.7603655,139.828043 L52.2828862,142.069483 C52.4558591,142.224438 52.4558591,142.512726 52.2828862,142.70732 Z M54.5063081,140.206421 L53.3243269,141.53615 C53.2306333,141.644258 53.0648676,141.651465 52.9567596,141.557771 L50.1819868,139.092908 C50.0738787,138.999215 50.0666715,138.833449 50.1603652,138.725341 L51.3459499,137.392009 C51.7747785,136.909126 52.5135167,136.865883 52.9963992,137.298315 L54.416218,138.559575 C54.8918934,138.988404 54.9351366,139.727142 54.5063081,140.206421 L54.5063081,140.206421 Z" id="形状备份-2"></path>
                </g>
            </g>
        </g>
    </g>
</svg>