<?xml version="1.0" encoding="UTF-8"?>
<svg width="16px" height="16px" viewBox="0 0 16 16" version="1.1" xmlns="http://www.w3.org/2000/svg" xmlns:xlink="http://www.w3.org/1999/xlink">
    <title>形状结合</title>
    <g id="重医加急-V3" stroke="none" stroke-width="1" fill="none" fill-rule="evenodd">
        <g id="B05-病历目录-时间轴模式-x结果显示" transform="translate(-166.000000, -393.000000)" fill="#2D5AFA" fill-rule="nonzero">
            <g id="左侧列表" transform="translate(128.000000, 152.000000)">
                <g id="列表-顶部">
                    <g id="编组-7" transform="translate(8.000000, 56.000000)">
                        <g id="编组-10备份-6" transform="translate(14.000000, 168.000000)">
                            <path d="M28.5714286,28.4208754 L28.5714286,31.8381594 C28.5714286,32.4702581 28.0791209,33 27.4461538,33 L27.4461538,33 L20.5592561,33 C19.9262891,33 19.4285714,32.4702581 19.4285714,31.8381594 L19.4285714,31.8381594 L19.4285714,28.4208754 L28.5714286,28.4208754 Z M18.2805836,21.5714286 L18.2805836,22.7341615 L29.6835017,22.7341615 L29.6835017,21.5714286 L30.8417508,21.5714286 C31.4738496,21.5714286 32,22.1080745 32,22.7377391 L32,22.7377391 L32,30.7069317 C32,31.3365963 31.4720539,31.8571429 30.8417508,31.8571429 L30.8417508,31.8571429 L29.6835017,31.8571429 L29.6835017,27.2956522 L18.2805836,27.2956522 L18.2805836,31.8571429 L17.1277217,31.8571429 C16.4956229,31.8571429 16,31.3365963 16,30.7069317 L16,30.7069317 L16,22.7377391 C16,22.1080745 16.4956229,21.5714286 17.1277217,21.5714286 L17.1277217,21.5714286 L18.2805836,21.5714286 Z M29.6835017,23.8790062 L26.2716049,23.8790062 L26.2716049,25.0417391 L29.6835017,25.0417391 L29.6835017,23.8790062 Z M27.4461538,17 C28.0791209,17 28.5714286,17.4920314 28.5714286,18.1241302 L28.5714286,18.1241302 L28.5714286,21.5252525 L19.4285714,21.5252525 L19.4285714,18.1241302 C19.4285714,17.4920314 19.9262891,17 20.5592561,17 L20.5592561,17 Z" id="形状结合"></path>
                        </g>
                    </g>
                </g>
            </g>
        </g>
    </g>
</svg>