<?xml version="1.0" encoding="UTF-8"?>
<svg width="14px" height="16px" viewBox="0 0 14 16" version="1.1" xmlns="http://www.w3.org/2000/svg" xmlns:xlink="http://www.w3.org/1999/xlink">
    <title>形状</title>
    <g id="C001-电子病历-200916" stroke="none" stroke-width="1" fill="none" fill-rule="evenodd">
        <g id="C001-电子病历-检验" transform="translate(-166.000000, -468.000000)" fill="#7E89A4" fill-rule="nonzero">
            <g id="左侧列表" transform="translate(128.000000, 152.000000)">
                <g id="列表-树" transform="translate(16.000000, 58.000000)">
                    <path d="M34.15625,258 C35.03625,258 35.75625,258.72 35.75625,259.6 L35.75625,272.4 C35.75625,273.28 35.03625,274 34.15625,274 L23.75625,274 C22.87625,274 22.15625,273.28 22.15625,272.4 L22.15625,259.6 C22.15625,258.72 22.87625,258 23.75625,258 L34.15625,258 Z M28.95625,264.4 C28.71625,264.4 28.55625,264.56 28.55625,264.8 L28.55625,266.8 L26.55625,266.8 C26.31625,266.8 26.15625,266.96 26.15625,267.2 C26.15625,267.44 26.31625,267.6 26.55625,267.6 L28.55625,267.6 L28.55625,269.6 C28.55625,269.84 28.71625,270 28.95625,270 C29.19625,270 29.35625,269.84 29.35625,269.6 L29.35625,267.6 L31.35625,267.6 C31.59625,267.6 31.75625,267.44 31.75625,267.2 C31.75625,266.96 31.59625,266.8 31.35625,266.8 L29.35625,266.8 L29.35625,264.8 C29.35625,264.56 29.19625,264.4 28.95625,264.4 Z M32.23625,259.6 L25.67625,259.6 C25.43625,259.6 25.27625,259.76 25.27625,260 C25.27625,260.16 25.43625,260.32 25.59625,260.4 L32.23625,260.4 C32.47625,260.4 32.63625,260.24 32.63625,260 C32.63625,259.76 32.47625,259.6 32.23625,259.6 Z" id="形状"></path>
                </g>
            </g>
        </g>
    </g>
</svg>