<?xml version="1.0" encoding="UTF-8"?>
<svg width="22px" height="17px" viewBox="0 0 22 17" version="1.1" xmlns="http://www.w3.org/2000/svg" xmlns:xlink="http://www.w3.org/1999/xlink">
    <title>时间轴</title>
    <g id="A-病历主界面" stroke="none" stroke-width="1" fill="none" fill-rule="evenodd">
        <g id="宽屏" transform="translate(-646.000000, -160.000000)" fill="#FFFFFF">
            <g id="左侧列表" transform="translate(148.000000, 144.000000)">
                <g id="模式切换" transform="translate(460.000000, 8.000000)">
                    <path d="M39.5,22 C40.3284271,22 41,22.6715729 41,23.5 C41,24.3284271 40.3284271,25 39.5,25 C38.6715729,25 38,24.3284271 38,23.5 C38,22.6715729 38.6715729,22 39.5,22 Z M58.5,22 C59.3284271,22 60,22.6715729 60,23.5 C60,24.3284271 59.3284271,25 58.5,25 L45.5,25 C44.6715729,25 44,24.3284271 44,23.5 C44,22.6715729 44.6715729,22 45.5,22 L58.5,22 Z M39.5,18.75 C39.7761424,18.75 40,18.9738576 40,19.25 L40,20.75 C40,21.0261424 39.7761424,21.25 39.5,21.25 C39.2238576,21.25 39,21.0261424 39,20.75 L39,19.25 C39,18.9738576 39.2238576,18.75 39.5,18.75 Z M39.5,15 C40.3284271,15 41,15.6715729 41,16.5 C41,17.3284271 40.3284271,18 39.5,18 C38.6715729,18 38,17.3284271 38,16.5 C38,15.6715729 38.6715729,15 39.5,15 Z M58.5,15 C59.3284271,15 60,15.6715729 60,16.5 C60,17.3284271 59.3284271,18 58.5,18 L45.5,18 C44.6715729,18 44,17.3284271 44,16.5 C44,15.6715729 44.6715729,15 45.5,15 L58.5,15 Z M39.5,11.75 C39.7761424,11.75 40,11.9738576 40,12.25 L40,13.75 C40,14.0261424 39.7761424,14.25 39.5,14.25 C39.2238576,14.25 39,14.0261424 39,13.75 L39,12.25 C39,11.9738576 39.2238576,11.75 39.5,11.75 Z M39.5,8 C40.3284271,8 41,8.67157288 41,9.5 C41,10.3284271 40.3284271,11 39.5,11 C38.6715729,11 38,10.3284271 38,9.5 C38,8.67157288 38.6715729,8 39.5,8 Z M58.5,8 C59.3284271,8 60,8.67157288 60,9.5 C60,10.3284271 59.3284271,11 58.5,11 L45.5,11 C44.6715729,11 44,10.3284271 44,9.5 C44,8.67157288 44.6715729,8 45.5,8 L58.5,8 Z" id="时间轴"></path>
                </g>
            </g>
        </g>
    </g>
</svg>