<?xml version="1.0" encoding="UTF-8"?>
<svg width="15px" height="22px" viewBox="0 0 15 22" version="1.1" xmlns="http://www.w3.org/2000/svg" xmlns:xlink="http://www.w3.org/1999/xlink">
    <title>形状结合</title>
    <g id="快速输入-配置页面" stroke="none" stroke-width="1" fill="none" fill-rule="evenodd">
        <g id="C02-快速输入-输入关键词" transform="translate(-2508.000000, -226.000000)" fill="#7E89A4" fill-rule="nonzero">
            <g id="右侧功能" transform="translate(1670.000000, 152.000000)">
                <g id="助手-搜索" transform="translate(58.000000, 64.000000)">
                    <path d="M780.846154,18 C781.297337,18 781.691568,18.3863933 781.691568,18.8268378 L781.691568,18.8268378 L781.691568,21.3073512 C781.691568,24.449627 784.285503,26.9841916 787.5,26.9841916 C790.714497,26.9841916 793.308432,24.4488966 793.308432,21.3073512 L793.308432,21.3073512 L793.308432,19.0474253 C793.308432,18.6062503 793.703402,18.2205875 794.154586,18.2205875 C794.605769,18.2205875 795,18.5514687 795,19.0474253 L795,19.0474253 L795,21.3073512 C795,25.0551469 792.068047,28.1966922 788.346154,28.5830855 L788.346154,28.5830855 L788.346154,30.3463244 L791.16568,30.3463244 C791.616864,30.3463244 792.011095,30.7319873 792.011095,31.1731622 C792.011095,31.6143371 791.616864,32 791.16568,32 L791.16568,32 L783.83432,32 C783.383876,32 782.988905,31.6143371 782.988905,31.1731622 C782.988905,30.7319873 783.383136,30.3463244 783.83432,30.3463244 L783.83432,30.3463244 L786.654586,30.3463244 L786.654586,28.5823551 C782.932692,28.1966922 780,25.0551469 780,21.3073512 L780,21.3073512 L780,18.8268378 C780,18.3863933 780.39497,18 780.846154,18 Z M787.5,10 C789.986883,10 792,11.9564284 792,14.3743147 L792,14.3743147 L792,21.6256853 C792,24.0435715 789.986883,26 787.5,26 C785.013117,26 783.059027,24.0435715 783,21.6256853 L783,21.6256853 L783,14.3743147 C783,11.9564285 785.013117,10 787.5,10 Z" id="形状结合"></path>
                </g>
            </g>
        </g>
    </g>
</svg>