<?xml version="1.0" encoding="UTF-8"?>
<svg width="24px" height="24px" viewBox="0 0 24 24" version="1.1" xmlns="http://www.w3.org/2000/svg" xmlns:xlink="http://www.w3.org/1999/xlink">
    <title>成功</title>
    <defs>
        <linearGradient x1="50%" y1="0%" x2="50%" y2="100%" id="linearGradient-1">
            <stop stop-color="#5993FD" offset="0%"></stop>
            <stop stop-color="#2D5AFA" offset="100%"></stop>
        </linearGradient>
    </defs>
    <g id="病理归档（流程图优化）20201125" stroke="none" stroke-width="1" fill="none" fill-rule="evenodd">
        <g id="A07-病历归档-归档召回查询-流程步骤图（鼠标悬浮显示更多信息）" transform="translate(-980.000000, -311.000000)" fill-rule="nonzero">
            <g id="成功" transform="translate(980.000000, 311.000000)">
                <path d="M0,12 C0,5.37284212 5.37094735,0 12,0 C18.6271579,0 24,5.37094735 24,12 C24,18.6271579 18.6290526,24 12,24 C5.37284212,24 0,18.6290526 0,12 Z" id="形状" fill="url(#linearGradient-1)"></path>
                <g id="对号" transform="translate(4.000000, 4.000000)">
                    <rect id="矩形" fill="#000000" opacity="0" x="0" y="0" width="16" height="16"></rect>
                    <path d="M6.94285714,11.5257143 C6.72701989,11.5190155 6.52218767,11.4288894 6.37142858,11.2742857 L2.96,7.88 C2.63561624,7.54354907 2.63561624,7.01073665 2.96,6.67428572 C3.11876117,6.51446279 3.33472577,6.4245854 3.56,6.4245854 C3.78527423,6.4245854 4.00123883,6.51446279 4.16,6.67428572 L6.94285714,9.47428572 L14.0514286,3.25142858 C14.2084363,3.09050886 14.4237458,2.99976888 14.6485714,2.99976888 C14.8733971,2.99976888 15.0887066,3.09050886 15.2457143,3.25142858 C15.4055372,3.41018974 15.4954146,3.62615435 15.4954146,3.85142858 C15.4954146,4.07670281 15.4055372,4.29266741 15.2457143,4.45142858 L7.54285714,11.2742857 C7.38402172,11.4342104 7.16825326,11.5246276 6.94285714,11.5257143 Z" id="路径" fill="#FFFFFF"></path>
                </g>
            </g>
        </g>
    </g>
</svg>