<?xml version="1.0" encoding="UTF-8"?>
<svg width="24px" height="24px" viewBox="0 0 24 24" version="1.1" xmlns="http://www.w3.org/2000/svg" xmlns:xlink="http://www.w3.org/1999/xlink">
    <title>筛选</title>
    <g id="评审后修改" stroke="none" stroke-width="1" fill="none" fill-rule="evenodd">
        <g id="B04-病历目录-时间轴模式-初始页" transform="translate(-140.000000, -164.000000)" fill-rule="nonzero">
            <g id="左侧列表" transform="translate(128.000000, 152.000000)">
                <g id="列表-顶部">
                    <g id="筛选" transform="translate(12.000000, 12.000000)">
                        <rect id="矩形" fill="#000000" opacity="0" x="0" y="0" width="24" height="24"></rect>
                        <path d="M20.5066694,3.61079388 C20.3321397,3.34901138 20.0703812,3 19.7213458,3 L2.79319113,3 C2.53140862,3 2.18237327,3.34903535 2.09512043,3.61079388 C1.92061474,3.87257639 2.00786758,4.30886459 2.18237327,4.57064709 L8.11595029,11.115042 L8.11595029,18.3574836 C8.11595029,18.6192661 8.29047996,18.9683015 8.63949133,19.0555543 L13.0896741,21.0625136 C13.1769509,21.1497665 13.3514566,21.1497665 13.4387334,21.1497665 C13.6132391,21.1497665 13.7877688,21.1497665 13.8749977,21.0625136 C14.1367802,20.887984 14.3113098,20.7134783 14.3113098,20.3644429 L14.5730923,11.0277652 L20.3321637,4.48337027 C20.5939222,4.30886461 20.5939222,3.95980526 20.5066694,3.61079388 L20.5066694,3.61079388 Z M12.6534099,19.1428072 L9.86112705,17.8339186 L9.86112705,11.7258359 L12.9151924,11.7258359 L12.6534099,19.1428072 L12.6534099,19.1428072 Z M13.3514566,9.89340628 C13.2642038,9.89340628 13.2642038,9.98065913 13.1769509,9.98065913 L9.42483886,9.98065913 L4.71287358,4.7451528 L17.8889402,4.7451528 L13.3514566,9.89340628 L13.3514566,9.89340628 Z M22.9499169,15.9142361 C22.9499169,15.5652008 22.6008815,15.2161654 22.2518462,15.2161654 L16.6673045,15.2161654 C16.3182691,15.2161654 15.9692338,15.5652248 15.9692338,15.9142361 L15.9692338,16.2632715 C15.9692338,16.6123308 16.3182931,16.9613422 16.6673045,16.9613422 L22.2518461,16.9613422 C22.6009055,16.9613422 22.9499169,16.6123069 22.9499169,16.2632715 L22.9499169,15.9142361 L22.9499169,15.9142361 Z M22.9499169,12.4239066 C22.9499169,12.0748473 22.6008815,11.7258359 22.2518462,11.7258359 L16.6673045,11.7258359 C16.3182691,11.7258359 15.9692338,12.0748712 15.9692338,12.4239066 L15.9692338,12.7729419 C15.9692338,13.1219773 16.3182931,13.4710126 16.6673045,13.4710126 L22.2518461,13.4710126 C22.6009055,13.4710126 22.9499169,13.1219533 22.9499169,12.7729419 L22.9499169,12.4239066 L22.9499169,12.4239066 Z M22.9499169,19.4045897 C22.9499169,19.0555543 22.6008815,18.706543 22.2518462,18.706543 L16.6673045,18.706543 C16.3182691,18.706543 15.9692338,19.0555783 15.9692338,19.4045897 L15.9692338,19.753625 C15.9692338,20.1026604 16.3182931,20.4516957 16.6673045,20.4516957 L22.2518461,20.4516957 C22.6009055,20.4516957 22.9499169,20.1026604 22.9499169,19.753625 L22.9499169,19.4045897 L22.9499169,19.4045897 Z" id="形状" fill="#7E89A4"></path>
                    </g>
                </g>
            </g>
        </g>
    </g>
</svg>