<?xml version="1.0" encoding="UTF-8"?>
<svg width="16px" height="17px" viewBox="0 0 16 17" version="1.1" xmlns="http://www.w3.org/2000/svg" xmlns:xlink="http://www.w3.org/1999/xlink">
    <title>形状</title>
    <g id="C001-电子病历-200916" stroke="none" stroke-width="1" fill="none" fill-rule="evenodd">
        <g id="C001-电子病历-检验" transform="translate(-185.000000, -314.000000)" fill="#7E89A4" fill-rule="nonzero">
            <g id="左侧列表" transform="translate(128.000000, 152.000000)">
                <g id="列表-树" transform="translate(16.000000, 58.000000)">
                    <path d="M57,118.990196 C57,119.642448 56.4738742,120.172178 55.8180189,120.172178 L47.8864929,120.172178 C47.2342411,120.172178 46.7045118,119.646052 46.7045118,118.990196 C46.7045118,118.337945 47.2306375,117.808215 47.8864929,117.808215 L55.8180189,117.808215 C56.4702707,117.811819 57,118.337945 57,118.990196 Z M57,115.646055 C57,116.298306 56.4738742,116.828036 55.8180189,116.828036 L51.3171211,116.828036 C50.6648693,116.828036 50.13514,116.30191 50.13514,115.646055 C50.13514,114.993803 50.6612657,114.464074 51.3171211,114.464074 L55.8180189,114.464074 C56.4702707,114.467677 57,114.993803 57,115.646055 Z M52.2828862,109.70732 L44.5639727,118.384792 L41.2991101,119.058665 C41.1225337,119.094701 40.9747861,118.957764 41.0036149,118.777584 L41.4792902,115.487496 L49.1225281,106.900115 C49.2991045,106.70552 49.583789,106.669484 49.7603655,106.828043 L52.2828862,109.069483 C52.4558591,109.224438 52.4558591,109.512726 52.2828862,109.70732 Z M54.5063081,107.206421 L53.3243269,108.53615 C53.2306333,108.644258 53.0648676,108.651465 52.9567596,108.557771 L50.1819868,106.092908 C50.0738787,105.999215 50.0666715,105.833449 50.1603652,105.725341 L51.3459499,104.392009 C51.7747785,103.909126 52.5135167,103.865883 52.9963992,104.298315 L54.416218,105.559575 C54.8918934,105.988404 54.9351366,106.727142 54.5063081,107.206421 L54.5063081,107.206421 Z" id="形状"></path>
                </g>
            </g>
        </g>
    </g>
</svg>