<?xml version="1.0" encoding="UTF-8"?>
<svg width="22px" height="16px" viewBox="0 0 22 16" version="1.1" xmlns="http://www.w3.org/2000/svg" xmlns:xlink="http://www.w3.org/1999/xlink">
    <title>形状</title>
    <g id="C001-电子病历-200916" stroke="none" stroke-width="1" fill="none" fill-rule="evenodd">
        <g id="C001-电子病历-过敏" transform="translate(-597.000000, -168.000000)" fill="#FFFFFF" fill-rule="nonzero">
            <g id="左侧列表" transform="translate(128.000000, 152.000000)">
                <g id="模式切换" transform="translate(427.000000, 6.000000)">
                    <path d="M49.8571515,13.2000094 L62.4285618,13.2000094 C63.3714181,13.2000094 63.9999967,12.5600028 63.9999967,11.6000047 C63.9999967,10.6400066 63.3714181,10 62.4285618,10 L49.8571515,10 C48.9142952,10 48.2857166,10.6400066 48.2857166,11.6000047 C48.2857166,12.5600028 48.9142952,13.2000094 49.8571515,13.2000094 Z M62.4285618,16.3999953 L49.8571515,16.3999953 C48.9142952,16.3999953 48.2857166,17.0400019 48.2857166,18 C48.2857166,18.9599981 48.9142952,19.6000047 49.8571515,19.6000047 L62.4285618,19.6000047 C63.3714181,19.6000047 63.9999967,18.9599981 63.9999967,18 C63.9999967,17.0400019 63.3714181,16.3999953 62.4285618,16.3999953 Z M62.4285618,22.7999906 L49.8571515,22.7999906 C48.9142952,22.7999906 48.2857166,23.4399972 48.2857166,24.3999953 C48.2857166,25.3599934 48.9142952,26 49.8571515,26 L62.4285618,26 C63.3714181,26 63.9999967,25.3599934 63.9999967,24.3999953 C63.9999967,23.4399972 63.3714181,22.7999906 62.4285618,22.7999906 Z M43.5714349,10.0000234 C42.6285786,10.0000234 42,10.64003 42,11.6000281 C42,12.5600262 42.6285786,13.2000328 43.5714349,13.2000328 C44.5142913,13.2000328 45.1428698,12.5600262 45.1428698,11.6000281 C45.1428698,10.64003 44.5142913,10.0000234 43.5714349,10.0000234 Z M43.5714349,16.3999953 C42.6285786,16.3999953 42,17.0400019 42,18 C42,18.9599981 42.6285786,19.6000047 43.5714349,19.6000047 C44.5142913,19.6000047 45.1428698,18.9599981 45.1428698,18 C45.1428698,17.0400019 44.5142913,16.3999953 43.5714349,16.3999953 Z M43.5714349,22.7999906 C42.6285786,22.7999906 42,23.4399972 42,24.3999953 C42,25.3599934 42.6285786,26 43.5714349,26 C44.5142913,26 45.1428698,25.3599934 45.1428698,24.3999953 C45.1428698,23.4399972 44.5142913,22.7999906 43.5714349,22.7999906 Z" id="形状"></path>
                </g>
            </g>
        </g>
    </g>
</svg>