<?xml version="1.0" encoding="UTF-8"?>
<svg width="24px" height="24px" viewBox="0 0 24 24" version="1.1" xmlns="http://www.w3.org/2000/svg" xmlns:xlink="http://www.w3.org/1999/xlink">
    <title>导入备份 2</title>
    <g id="快速输入-配置页面" stroke="none" stroke-width="1" fill="none" fill-rule="evenodd">
        <g id="C02-快速输入-输入关键词" transform="translate(-1745.000000, -382.000000)" fill-rule="nonzero">
            <g id="导入备份-2" transform="translate(1745.000000, 382.000000)">
                <rect id="矩形" fill="#000000" opacity="0" x="0" y="0" width="23.296" height="23.296"></rect>
                <path d="M19.829264,1.716624 C17.852016,3.816176 14.784224,5.939024 14.97496,9.679488 C14.8210495,9.83709065 14.6821312,10.0086669 14.56,10.192 L16.828448,10.157056 C17.014318,10.1596389 17.1827695,10.2670341 17.2635496,10.4344525 C17.3443297,10.6018708 17.3235668,10.8005629 17.20992,10.947664 L13.160784,15.801968 C12.9977724,16.008717 12.6981837,16.0445374 12.491024,15.882048 C12.4612024,15.8586779 12.4343141,15.8317896 12.410944,15.801968 L8.061872,10.962224 C7.93902926,10.8151434 7.91305316,10.6100065 7.99535738,10.4369485 C8.0776616,10.2638906 8.25318341,10.1545836 8.4448,10.157056 L10.192,10.192 C10.433696,10.192 10.25024,9.9736 10.283728,9.734816 C11.648,3.299296 19.257056,1.662752 19.829264,1.716624 Z M18.464992,21.84 L4.368,21.84 C1.87824,21.998704 1.53608,20.119008 1.456,18.928 L1.469104,4.359264 C1.3771458,3.56229451 1.65424737,2.76697043 2.2215289,2.1996889 C2.78881043,1.63240737 3.58413451,1.3553058 4.381104,1.447264 C1.933568,1.47056 10.192,1.456 10.192,1.456 C10.5940633,1.456 10.92,1.7819367 10.92,2.184 C10.92,2.5860633 10.5940633,2.912 10.192,2.912 L4.378192,2.912 C3.96760468,2.79963145 3.5282923,2.91608927 3.22728678,3.21709478 C2.92628127,3.5181003 2.80982345,3.95741268 2.922192,4.368 L2.922192,18.172336 C2.900352,19.27016 3.26144,20.36216 4.368,20.384 L18.928,20.384 C19.3185264,20.3988778 19.6975731,20.2502614 19.9739172,19.9739172 C20.2502614,19.6975731 20.3988778,19.3185264 20.384,18.928 L20.372352,13.077792 C20.372352,12.6757287 20.6982887,12.349792 21.100352,12.349792 C21.5024153,12.349792 21.828352,12.6757287 21.828352,13.077792 L21.84,18.928 C21.9290777,19.7243003 21.6510382,20.5178754 21.0844568,21.0844568 C20.5178754,21.6510382 19.7243003,21.9290777 18.928,21.84 L18.464992,21.84 Z" id="形状" fill="#7E89A4"></path>
            </g>
        </g>
    </g>
</svg>