<?xml version="1.0" encoding="UTF-8"?>
<svg width="24px" height="24px" viewBox="0 0 24 24" version="1.1" xmlns="http://www.w3.org/2000/svg" xmlns:xlink="http://www.w3.org/1999/xlink">
    <title>编组 5</title>
    <defs>
        <linearGradient x1="50%" y1="0%" x2="50%" y2="100%" id="linearGradient-1">
            <stop stop-color="#5993FD" offset="0%"></stop>
            <stop stop-color="#2D5AFA" offset="100%"></stop>
        </linearGradient>
    </defs>
    <g id="病理归档（流程图优化）20201125" stroke="none" stroke-width="1" fill="none" fill-rule="evenodd">
        <g id="A07-病历归档-归档召回查询-流程步骤图（鼠标悬浮显示更多信息）" transform="translate(-980.000000, -469.000000)" fill-rule="nonzero">
            <g id="编组-5" transform="translate(980.000000, 469.000000)">
                <g id="成功" fill="url(#linearGradient-1)">
                    <path d="M0,12 C0,5.37284212 5.37094735,0 12,0 C18.6271579,0 24,5.37094735 24,12 C24,18.6271579 18.6290526,24 12,24 C5.37284212,24 0,18.6290526 0,12 Z" id="形状"></path>
                </g>
                <g id="沙漏" transform="translate(4.000000, 4.000000)">
                    <rect id="矩形" fill="#000000" opacity="0" x="0" y="0" width="16" height="16"></rect>
                    <path d="M13.454875,1.234375 C13.7127969,1.234375 13.921875,1.44364063 13.921875,1.70179688 C13.921875,1.95625 13.7187187,2.16320313 13.4658906,2.16907813 L13.454875,2.16920313 L11.7471719,2.16920313 L11.7471719,4.60614063 L11.7470469,4.62690625 C11.7410826,5.12679006 11.5187287,5.59954567 11.1374844,5.92292188 L11.1258906,5.93267188 L8.7250625,7.9325 L11.1820937,9.97915625 C11.5702383,10.30256 11.797244,10.7797545 11.8032656,11.2849375 L11.8033906,11.3057031 L11.8033906,13.7682812 L13.454875,13.7682812 C13.7127969,13.7682812 13.921875,13.9775625 13.921875,14.2357031 C13.921875,14.4901719 13.7187188,14.6971406 13.4658906,14.703125 L13.454875,14.703125 L2.49825,14.703125 C2.24032813,14.703125 2.03125,14.4938594 2.03125,14.2357031 C2.03125,13.98125 2.23440625,13.7742969 2.48723437,13.7684219 L2.49825,13.7682969 L4.18664062,13.7682813 L4.18664062,11.3056875 L4.18678125,11.2849062 C4.19274556,10.7850224 4.41509943,10.3122668 4.79634375,9.98889062 L4.8079375,9.97914062 L7.26496875,7.93248438 L4.86415625,5.93267188 C4.47601753,5.60926519 4.24901774,5.13207113 4.243,4.62689062 L4.242875,4.60614063 L4.24285938,2.16920313 L2.49825,2.16920313 C2.24032813,2.16920313 2.03125,1.9599375 2.03125,1.70179687 C2.03125,1.44732812 2.23440625,1.24035937 2.48723437,1.234375 L2.49825,1.234375 L13.454875,1.234375 Z M10.8131563,2.16920312 L5.176875,2.16920312 L5.176875,4.60614063 C5.176875,4.83567724 5.27652479,5.05390771 5.45,5.20421875 L5.46165625,5.214125 L7.995,7.324375 L10.5283906,5.21414062 L10.5400469,5.20423438 C10.7110634,5.05604427 10.8104528,4.84172727 10.8130938,4.61545313 L10.8131563,4.60614063 L10.8131563,2.16920312 L10.8131563,2.16920312 Z" id="形状" fill="#FFFFFF" transform="translate(7.976562, 7.968750) scale(1, -1) translate(-7.976562, -7.968750) "></path>
                </g>
            </g>
        </g>
    </g>
</svg>