<?xml version="1.0" encoding="UTF-8"?>
<svg width="16px" height="20px" viewBox="0 0 16 20" version="1.1" xmlns="http://www.w3.org/2000/svg" xmlns:xlink="http://www.w3.org/1999/xlink">
    <title>列表模式</title>
    <g id="C001-电子病历-200916" stroke="none" stroke-width="1" fill="none" fill-rule="evenodd">
        <g id="C001-电子病历-初次提醒" transform="translate(-565.000000, -168.000000)" fill="#7E89A4" fill-rule="nonzero">
            <g id="左侧列表" transform="translate(128.000000, 152.000000)">
                <g id="列表-顶部" transform="translate(0.000000, 1.000000)">
                    <g id="模式切换" transform="translate(427.000000, 6.000000)">
                        <path d="M20.6666667,27 L14.6666667,27 C13.930287,27 13.3333333,26.4030463 13.3333333,25.6666667 L13.3333333,15.6666667 L10,15.6666667 L10,9 L18,9 L18,15.6666667 L14.6666667,15.6666667 L14.6666667,19 L20.6666667,19 L20.6666667,17 L26,17 L26,22.3333333 L20.6666667,22.3333333 L20.6666667,20.3333333 L14.6666667,20.3333333 L14.6666667,25.6666667 L20.6666667,25.6666667 L20.6666667,23.6666667 L26,23.6666667 L26,29 L20.6666667,29 L20.6666667,27 Z M13.3333333,14.3333333 L16.6666667,14.3333333 L16.6666667,10.3333333 L11.3333333,10.3333333 L11.3333333,14.3333333 L13.3333333,14.3333333 Z M22,19 L22,21 L24.6666667,21 L24.6666667,18.3333333 L22,18.3333333 L22,19 Z M22,25.6666667 L22,27.6666667 L24.6666667,27.6666667 L24.6666667,25 L22,25 L22,25.6666667 Z" id="列表模式"></path>
                    </g>
                </g>
            </g>
        </g>
    </g>
</svg>