<?xml version="1.0" encoding="UTF-8"?>
<svg width="24px" height="24px" viewBox="0 0 24 24" version="1.1" xmlns="http://www.w3.org/2000/svg" xmlns:xlink="http://www.w3.org/1999/xlink">
    <title>ICON-搜索</title>
    <g id="快速输入-配置页面" stroke="none" stroke-width="1" fill="none" fill-rule="evenodd">
        <g id="C02-快速输入-输入关键词" transform="translate(-1742.000000, -225.000000)">
            <g id="右侧功能" transform="translate(1670.000000, 152.000000)">
                <g id="助手-搜索" transform="translate(58.000000, 64.000000)">
                    <g id="ICON-搜索" transform="translate(14.000000, 9.000000)">
                        <rect id="矩形" x="0" y="0" width="24" height="24"></rect>
                        <path d="M21.8279441,20.8190508 L17.141241,16.1323476 C20.1145224,12.6181866 19.7875921,7.38451963 16.4000946,4.26769592 C13.012597,1.15087221 7.76986263,1.25991182 4.51488722,4.51488722 C1.25991182,7.76986263 1.15087221,13.012597 4.26769592,16.4000946 C7.38451963,19.7875921 12.6181866,20.1145224 16.1323476,17.141241 L20.8190508,21.8279441 C21.1029436,22.0710637 21.5261306,22.0547178 21.7904242,21.7904242 C22.0547178,21.5261306 22.0710637,21.1029436 21.8279441,20.8190508 L21.8279441,20.8190508 Z M3.4317397,10.594167 C3.4317397,6.6424194 6.63526412,3.43889499 10.5870118,3.43889499 C14.5387594,3.43889499 17.7422838,6.6424194 17.7422838,10.594167 C17.7422838,14.5459147 14.5387594,17.7494391 10.5870118,17.7494391 C8.68931561,17.7494391 6.86934417,16.9955822 5.52747036,15.6537084 C4.18559655,14.3118346 3.4317397,12.4918632 3.4317397,10.594167 Z" id="形状" fill="#7E89A4" fill-rule="nonzero"></path>
                    </g>
                </g>
            </g>
        </g>
    </g>
</svg>