<?xml version="1.0" encoding="UTF-8"?>
<svg width="18px" height="16px" viewBox="0 0 18 16" version="1.1" xmlns="http://www.w3.org/2000/svg" xmlns:xlink="http://www.w3.org/1999/xlink">
    <title>筛选</title>
    <g id="A-病历主界面" stroke="none" stroke-width="1" fill="none" fill-rule="evenodd">
        <g id="窄屏-中间-3医学公式1" transform="translate(-171.000000, -160.000000)" fill="#7E89A4" fill-rule="nonzero">
            <g id="左侧列表" transform="translate(148.000000, 144.000000)">
                <g id="筛选" transform="translate(16.000000, 8.000000)">
                    <path d="M15.9252533,23.8139844 L13.6960859,22.6650211 C13.1473386,22.3938967 12.8065893,21.8633055 12.8113392,21.2881832 L12.8113392,14.7477432 L12.8113393,14.7477436 C12.8077016,14.6482363 12.7573887,14.5562596 12.6755589,14.4995253 L7.52364731,10.680361 L7.46786633,10.6185176 C6.9861501,10.1731138 6.87371283,9.51150728 7.14310135,8.93205219 C7.40513208,8.35908614 8.01573867,7.99064938 8.68729827,8.00018061 L22.5915205,8.00018061 C23.263502,8.00018061 23.8689055,8.36255333 24.1482487,8.93161469 C24.4254356,9.49853387 24.3065296,10.164031 23.846843,10.6185176 L23.7789527,10.680361 L18.5587131,14.5405877 L18.5587131,14.5405877 C18.4822786,14.6004876 18.43699,14.6917077 18.4354793,14.788806 L18.4354793,22.4271814 C18.4475886,23.3071937 17.6852167,23.9999648 16.7438264,23.9999648 L16.7438265,23.9999648 C16.4601614,24.0017151 16.179901,23.938089 15.9248141,23.8139911 L15.9252533,23.8139844 Z M8.40794022,9.74846564 L13.53868,13.5365206 C13.9412714,13.8362075 14.1773803,14.2820332 14.1773803,14.757265 L14.1773803,21.2977051 C14.1773803,21.4122983 14.2331613,21.5264546 14.3455831,21.5779077 L16.5743286,22.7056835 L16.5743286,22.7056835 C16.6843399,22.757178 16.8115344,22.757178 16.9215451,22.7056835 L16.9215451,22.7056835 C17.023919,22.6500179 17.0881276,22.5432854 17.0893417,22.4267622 L17.0893417,14.8000743 C17.0893417,14.3235299 17.314185,13.8789996 17.7172138,13.5784705 L22.859188,9.7502125 L22.859188,9.75021249 C22.9363053,9.65654721 22.9494389,9.52566294 22.892469,9.41854128 L22.892469,9.4185413 C22.8317352,9.30855964 22.7154084,9.24092134 22.5897821,9.24251318 L8.68859109,9.24251318 C8.5541073,9.24251318 8.44168534,9.30438512 8.3859042,9.4185413 L8.38590419,9.41854131 C8.32468493,9.52325048 8.33359757,9.65472209 8.40838852,9.75021253 L8.40838852,9.74891566 L8.40794022,9.74846564 Z M23.6535504,16.247812 L19.9965421,16.247812 C19.6346069,16.2391714 19.3479043,15.962422 19.3539512,15.6272992 C19.3539512,15.2856765 19.6432475,15.0067708 19.9965421,15.0067708 L23.6535504,15.0067708 C24.006845,15.0067708 24.2961413,15.285239 24.2961413,15.6272992 C24.3026257,15.7890176 24.2382041,15.9464236 24.1171261,16.0631718 C23.9960329,16.1803587 23.8286891,16.2469527 23.653566,16.2478277 L23.6535504,16.247812 Z M23.6535504,18.632651 L19.9965421,18.632651 C19.6346069,18.6240104 19.3479043,18.347261 19.3539512,18.0121226 C19.3539512,17.669217 19.6432475,17.3907191 19.9965421,17.3907191 L23.6535504,17.3907191 C24.006845,17.3907191 24.2961413,17.6705155 24.2961413,18.0121226 C24.3026257,18.173841 24.2382041,18.3316844 24.1171261,18.4488701 C23.9960329,18.5656352 23.8286891,18.6317917 23.653566,18.632651 L23.6535504,18.632651 Z M23.6535504,21.0179275 L19.9965421,21.0179275 C19.6341694,21.0092713 19.347045,20.7316625 19.3539512,20.3961022 C19.3539512,20.0557763 19.6432475,19.7755581 19.9965421,19.7755581 L23.6535504,19.7755581 C24.006845,19.7755581 24.2961413,20.0557763 24.2961413,20.3961022 C24.3013288,20.5578206 24.2364541,20.7147891 24.1158292,20.8315529 C23.994736,20.9483023 23.8282516,21.0153338 23.653566,21.01749 L23.6535504,21.0179275 Z"></path>
                </g>
            </g>
        </g>
    </g>
</svg>