<?xml version="1.0" encoding="UTF-8"?>
<svg width="16px" height="16px" viewBox="0 0 16 16" version="1.1" xmlns="http://www.w3.org/2000/svg" xmlns:xlink="http://www.w3.org/1999/xlink">
    <title>形状结合</title>
    <g id="C001-电子病历-200916" stroke="none" stroke-width="1" fill="none" fill-rule="evenodd">
        <g id="C001-电子病历-检查" transform="translate(-187.000000, -251.000000)" fill="#7E89A4" fill-rule="nonzero">
            <g id="左侧列表" transform="translate(128.000000, 152.000000)">
                <g id="列表-树" transform="translate(16.000000, 58.000000)">
                    <path d="M55.5714286,52.4208754 L55.5714286,55.8381594 C55.5714286,56.4702581 55.0791209,57 54.4461538,57 L54.4461538,57 L47.5592561,57 C46.9262891,57 46.4285714,56.4702581 46.4285714,55.8381594 L46.4285714,55.8381594 L46.4285714,52.4208754 L55.5714286,52.4208754 Z M45.2805836,45.5714286 L45.2805836,46.7341615 L56.6835017,46.7341615 L56.6835017,45.5714286 L57.8417508,45.5714286 C58.4738496,45.5714286 59,46.1080745 59,46.7377391 L59,46.7377391 L59,54.7069317 C59,55.3365963 58.4720539,55.8571429 57.8417508,55.8571429 L57.8417508,55.8571429 L56.6835017,55.8571429 L56.6835017,51.2956522 L45.2805836,51.2956522 L45.2805836,55.8571429 L44.1277217,55.8571429 C43.4956229,55.8571429 43,55.3365963 43,54.7069317 L43,54.7069317 L43,46.7377391 C43,46.1080745 43.4956229,45.5714286 44.1277217,45.5714286 L44.1277217,45.5714286 L45.2805836,45.5714286 Z M56.6835017,47.8790062 L53.2716049,47.8790062 L53.2716049,49.0417391 L56.6835017,49.0417391 L56.6835017,47.8790062 Z M54.4461538,41 C55.0791209,41 55.5714286,41.4920314 55.5714286,42.1241302 L55.5714286,42.1241302 L55.5714286,45.5252525 L46.4285714,45.5252525 L46.4285714,42.1241302 C46.4285714,41.4920314 46.9262891,41 47.5592561,41 L47.5592561,41 Z" id="形状结合"></path>
                </g>
            </g>
        </g>
    </g>
</svg>