<?xml version="1.0" encoding="UTF-8"?>
<svg width="16px" height="91px" viewBox="0 0 16 91" version="1.1" xmlns="http://www.w3.org/2000/svg" xmlns:xlink="http://www.w3.org/1999/xlink">
    <title>收起按钮</title>
    <g id="任务中心-三级阅改-20201127输出" stroke="none" stroke-width="1" fill="none" fill-rule="evenodd">
        <g id="A04-病历夹" transform="translate(-234.000000, -545.000000)">
            <g id="收起按钮" transform="translate(234.000000, 545.000000)">
                <path d="M0,0 L15.1234752,18.904344 C15.690877,19.6135962 16,20.4948383 16,21.4031242 L16,69.5968758 C16,70.5051617 15.690877,71.3864038 15.1234752,72.095656 L0,91 L0,91 L0,0 Z" id="矩形" fill="#FFFFFF"></path>
                <path d="M3.98894467,45.247523 L7.73545248,42.3846062 L11.4818965,45.3443752 C11.5891868,45.4333088 11.7238806,45.4824926 11.8632331,45.4836218 C12.0432829,45.4838804 12.2141129,45.4040142 12.3293731,45.2656918 C12.4322862,45.1421476 12.4818241,44.9827382 12.4670601,44.8226248 C12.4522961,44.6625115 12.3744433,44.5148487 12.2506737,44.4122068 L8.12281342,41.1377359 C7.89948123,40.954088 7.57744811,40.954088 7.35413186,41.1377359 L3.22627155,44.3093302 C3.10065729,44.4102013 3.02044434,44.5569922 3.00339908,44.7171901 C2.98635382,44.877388 3.03388311,45.0377708 3.13545967,45.1628152 C3.23723127,45.2874896 3.38446067,45.3665048 3.54461215,45.3823998 C3.70476363,45.3982947 3.86465222,45.3497607 3.98894467,45.247523 L3.98894467,45.247523 Z M8.12281342,45.6228352 C7.89948123,45.4392034 7.57744811,45.4392034 7.35413186,45.6228352 L3.22627155,48.7944455 C3.10065941,48.8953145 3.02045206,49.0421061 3.00341748,49.2023021 C2.98639462,49.3624862 3.03391455,49.5228495 3.13545967,49.6478987 C3.23633999,49.773487 3.38313,49.8536705 3.54331623,49.870689 C3.70350344,49.8877206 3.86387304,49.8402063 3.98892873,49.7386627 L7.73545248,46.8697055 L11.4818965,49.8294746 C11.5891883,49.9184036 11.7238823,49.9675818 11.8632331,49.9687053 C12.0432864,49.9689795 12.2141226,49.8891102 12.3293731,49.7507752 C12.4322943,49.6272345 12.4818375,49.467823 12.4670733,49.3077071 C12.4523091,49.1475911 12.3744507,48.9999273 12.2506737,48.8972902 L8.12281342,45.6228352 Z" id="形状" fill="#7E89A4" fill-rule="nonzero" transform="translate(7.734816, 45.484353) rotate(-90.000000) translate(-7.734816, -45.484353) "></path>
            </g>
        </g>
    </g>
</svg>