<?xml version="1.0" encoding="UTF-8"?>
<svg width="23px" height="17px" viewBox="0 0 23 17" version="1.1" xmlns="http://www.w3.org/2000/svg" xmlns:xlink="http://www.w3.org/1999/xlink">
    <title>树</title>
    <g id="A-病历主界面" stroke="none" stroke-width="1" fill="none" fill-rule="evenodd">
        <g id="宽屏" transform="translate(-612.000000, -160.000000)" fill="#7E89A4">
            <g id="左侧列表" transform="translate(148.000000, 144.000000)">
                <g id="模式切换" transform="translate(460.000000, 8.000000)">
                    <path d="M25.5,22 C26.3284271,22 27,22.6715729 27,23.5 C27,24.3284271 26.3284271,25 25.5,25 L17.5,25 C16.6715729,25 16,24.3284271 16,23.5 C16,22.6715729 16.6715729,22 17.5,22 L25.5,22 Z M6.5,12 C6.77614237,12 7,12.2238576 7,12.5 L7,16 L13.5,16 C13.7761424,16 14,16.2238576 14,16.5 C14,16.7761424 13.7761424,17 13.5,17 L7,17 L7,23 L13.5,23 C13.7761424,23 14,23.2238576 14,23.5 C14,23.7761424 13.7761424,24 13.5,24 L6.5,24 C6.22385763,24 6,23.7761424 6,23.5 L6,12.5 C6,12.2238576 6.22385763,12 6.5,12 Z M25.5,15 C26.3284271,15 27,15.6715729 27,16.5 C27,17.3284271 26.3284271,18 25.5,18 L17.5,18 C16.6715729,18 16,17.3284271 16,16.5 C16,15.6715729 16.6715729,15 17.5,15 L25.5,15 Z M25.5,8 C26.3284271,8 27,8.67157288 27,9.5 C27,10.3284271 26.3284271,11 25.5,11 L12.5,11 C11.6715729,11 11,10.3284271 11,9.5 C11,8.67157288 11.6715729,8 12.5,8 L25.5,8 Z M8.24565174,8 C8.74055231,8 8.89800232,8.31485464 8.59768681,8.7027817 L7.04458191,10.7089765 C6.74410494,11.0971121 6.25677406,11.0969036 5.95645855,10.7089765 L4.40335365,8.7027817 C4.10287668,8.31464609 4.25633476,8 4.75538871,8 L8.24565174,8 Z" id="树"></path>
                </g>
            </g>
        </g>
    </g>
</svg>