<?xml version="1.0" standalone="no"?><!DOCTYPE svg PUBLIC "-//W3C//DTD SVG 1.1//EN" "http://www.w3.org/Graphics/SVG/1.1/DTD/svg11.dtd"><svg t="1640079797952" class="icon" viewBox="0 0 1024 1024" version="1.1" xmlns="http://www.w3.org/2000/svg" p-id="3288" xmlns:xlink="http://www.w3.org/1999/xlink" width="200" height="200"><defs><style type="text/css"></style></defs><path d="M512 512m-388 0a388 388 0 1 0 776 0 388 388 0 1 0-776 0Z" fill="#FF7B15" p-id="3289"></path><path d="M372.31 423.511m-52.511 0a52.511 52.511 0 1 0 105.022 0 52.511 52.511 0 1 0-105.022 0Z" fill="#231815" p-id="3290"></path><path d="M651.69 423.511m-52.511 0a52.511 52.511 0 1 0 105.022 0 52.511 52.511 0 1 0-105.022 0Z" fill="#231815" p-id="3291"></path><path d="M512.011 706.218c79.08 0 145.727-53.231 166.063-125.817 6.554-23.394-10.835-46.623-35.13-46.623H381.068c-23.959 0-41.692 22.74-35.337 45.841 20.075 72.985 86.917 126.599 166.28 126.599z" fill="#FFFFFF" p-id="3292"></path></svg>