<?xml version="1.0" encoding="UTF-8"?>
<svg width="16px" height="16px" viewBox="0 0 16 16" version="1.1" xmlns="http://www.w3.org/2000/svg" xmlns:xlink="http://www.w3.org/1999/xlink">
    <title>保存</title>
    <g id="重医加急-V3" stroke="none" stroke-width="1" fill="none" fill-rule="evenodd">
        <g id="B04-病历目录-时间轴模式1" transform="translate(-315.000000, -740.000000)" fill-rule="nonzero">
            <g id="编组-2" transform="translate(223.000000, 714.000000)">
                <g id="保存" transform="translate(92.000000, 26.000000)">
                    <rect id="矩形" fill="#2D5AFA" opacity="0" x="0" y="0" width="16" height="16"></rect>
                    <path d="M11.6061523,0.96875 C11.8698242,0.969628906 12.1220703,1.07421875 12.3092773,1.25966797 L14.740332,3.69072266 C14.9249023,3.87792969 15.0303711,4.13017578 15.03125,4.39384766 L15.03125,14.0266602 C15.03125,14.58125 14.58125,15.03125 14.0266602,15.03125 L1.97333984,15.03125 C1.41852019,15.03125 0.96875,14.5814798 0.96875,14.0266602 L0.96875,1.97333984 C0.96875,1.41875 1.41875,0.96875 1.97333984,0.96875 L11.6061523,0.96875 Z M10.1181641,2.97792969 L3.87177734,2.97792969 C3.37783203,2.97792969 2.97792969,3.37783203 2.97792969,3.87177734 L2.97792969,6.1015625 C2.97792969,6.59550781 3.37783203,6.99541016 3.87177734,6.99541016 L10.119043,6.99541016 C10.6129883,6.99541016 11.0137695,6.59550781 11.0137695,6.1015625 L11.0137695,3.87177734 C11.0137695,3.37783203 10.6129883,2.97792969 10.119043,2.97792969 L10.1181641,2.97792969 Z M8.43945312,3.60546875 C9.1675629,3.60546875 9.7578125,4.19571835 9.7578125,4.92382812 C9.7578125,5.6519379 9.1675629,6.2421875 8.43945312,6.2421875 C7.71134335,6.2421875 7.12109375,5.6519379 7.12109375,4.92382812 C7.12109375,4.19571835 7.71134335,3.60546875 8.43945312,3.60546875 Z" id="形状" fill="#2D5AFA"></path>
                </g>
            </g>
        </g>
    </g>
</svg>