<?xml version="1.0" encoding="UTF-8"?>
<svg width="16px" height="16px" viewBox="0 0 16 16" version="1.1" xmlns="http://www.w3.org/2000/svg" xmlns:xlink="http://www.w3.org/1999/xlink">
    <title>门特登记审批表</title>
    <g id="重医加急-V3" stroke="none" stroke-width="1" fill="none" fill-rule="evenodd">
        <g id="B04-病历目录-时间轴模式1" transform="translate(-385.000000, -827.000000)" fill-rule="nonzero">
            <g id="编组-2" transform="translate(223.000000, 714.000000)">
                <g id="门特登记审批表" transform="translate(162.000000, 113.000000)">
                    <rect id="矩形" fill="#2D5AFA" opacity="0" x="0" y="0" width="16" height="16"></rect>
                    <path d="M14.253355,8.01166633 C13.8806395,7.79542973 13.4545959,7.6815263 13.0205838,7.68208302 C11.6786328,7.68208302 10.5910346,8.7501663 10.5910346,10.0679162 C10.5910346,10.5806662 10.7569038,11.0671662 11.0520491,11.4676245 L10.9872611,11.8182078 L10.8288905,11.8182078 C10.02294,11.8182078 9.33936689,12.4003745 9.22538804,13.1840828 L9.08651381,14.1387077 C9.04400069,14.4309639 9.08509641,14.7289603 9.20529177,15 L1.96403553,15 C0.879736747,15 0,14.2183327 0,13.2546661 L0,2.74533325 C0,1.7810833 0.879736747,1 1.96403553,1 L12.2893195,1 C13.3736183,1 14.253355,1.7810833 14.253355,2.74533325 L14.253355,8.01137467 L14.253355,8.01166633 Z M12.1066534,5.16733314 C11.8980941,4.9170102 11.5203374,4.87848805 11.2629099,5.08129147 L8.04150774,7.61762469 C7.949807,7.68972436 7.88199375,7.78650661 7.84654392,7.89587467 L7.45571644,9.10629128 L8.75417549,8.98554129 C8.87158713,8.97472297 8.98311473,8.9304909 9.07481598,8.85837463 L12.2956183,6.32204141 C12.4192841,6.2246937 12.4981138,6.08356091 12.5147641,5.92969341 C12.5314144,5.77582591 12.4845214,5.62182895 12.3844018,5.50158312 L12.1063534,5.16733314 L12.1066534,5.16733314 Z M2.09961037,3.91666653 C1.76830101,3.91666653 1.4997217,4.17783375 1.4997217,4.49999983 L1.4997217,4.79166649 C1.4997217,5.11383258 1.76830101,5.37499979 2.09961037,5.37499979 L7.49860848,5.37499979 C7.82991785,5.37499979 8.09849716,5.11383258 8.09849716,4.79166649 L8.09849716,4.49999983 C8.09849716,4.17783375 7.82991785,3.91666653 7.49860848,3.91666653 L2.09961037,3.91666653 Z M2.39955471,8.58333297 C2.06824535,8.58333297 1.79966604,8.84450019 1.79966604,9.16666628 L1.79966604,9.45833293 C1.79966604,9.78049902 2.06824535,10.0416662 2.39955471,10.0416662 L5.99888679,10.0416662 C6.33019615,10.0416662 6.59877546,9.78049902 6.59877546,9.45833293 L6.59877546,9.16666628 C6.59877546,8.84450019 6.33019615,8.58333297 5.99888679,8.58333297 L2.39955471,8.58333297 Z M14.242557,12.7728328 L15.2113772,12.7728328 C15.5340059,12.7729261 15.8074006,13.0038348 15.8526582,13.3144577 L15.9936321,14.281916 C16.019882,14.4626888 15.9641969,14.6456449 15.8409969,14.7834066 C15.7177968,14.9211683 15.5391985,15.0001867 15.3514512,14.9999997 L10.6891164,14.9999997 C10.5015262,14.9999331 10.3231743,14.9208057 10.2001756,14.7830762 C10.0771769,14.6453467 10.0216075,14.4625375 10.0478354,14.281916 L10.1885093,13.3144577 C10.2337829,13.0037252 10.5073477,12.7727808 10.8300903,12.7728328 L11.7986105,12.7728328 L12.0946556,11.1739162 C11.7569132,10.9007372 11.5619587,10.4953926 11.5628543,10.0682079 C11.5628543,9.27749961 12.2155332,8.63612464 13.0205838,8.63612464 C13.8259343,8.63612464 14.4783133,9.27749961 14.4783133,10.0682079 C14.4783133,10.5135829 14.2713517,10.9111245 13.9468119,11.1739162 L14.242857,12.7728328 L14.242557,12.7728328 Z" id="形状" fill="#2D5AFA"></path>
                </g>
            </g>
        </g>
    </g>
</svg>