<?xml version="1.0" encoding="UTF-8"?>
<svg width="15px" height="17px" viewBox="0 0 15 17" version="1.1" xmlns="http://www.w3.org/2000/svg" xmlns:xlink="http://www.w3.org/1999/xlink">
    <title>提交</title>
    <g id="重医加急-V3" stroke="none" stroke-width="1" fill="none" fill-rule="evenodd">
        <g id="B04-病历目录-时间轴模式1" transform="translate(-255.000000, -827.000000)" fill="#2D5AFA" fill-rule="nonzero">
            <g id="编组-2" transform="translate(223.000000, 714.000000)">
                <g id="提交" transform="translate(32.000000, 113.000000)">
                    <path d="M13.9536,11.5568 C14.184,11.7968 14.184,12.1712 13.944,12.4016 L9.8928,16.3568 C9.7776,16.472 9.624,16.5296 9.48,16.5296 C9.3264,16.5296 9.1728,16.472 9.048,16.3472 L6.8112,14.0528 C6.5808,13.8128 6.5808,13.4384 6.8208,13.208 C7.0608,12.9776 7.4352,12.9776 7.6656,13.2176 L9.48,15.08 L13.1088,11.5472 C13.3488,11.3168 13.7232,11.3168 13.9536,11.5568 Z M12.2352,0.9104 C12.648,0.9104 13.0032,1.2464 13.0128,1.6784 L13.0128,1.6784 L13.0128,8.5232 C13.0128,9.0704 12.744,9.5792 12.2928,9.8864 L12.2928,9.8864 L12.1968,9.9536 C11.8608,10.184 11.4576,10.3088 11.0448,10.3088 L11.0448,10.3088 L10.1712,10.3088 C7.1088,10.3088 5.832,12.632 5.832,14.2448 L5.832,14.2448 L5.832,15.9056 C5.832,16.1456 5.64,16.328 5.4096,16.328 L5.4096,16.328 L0.984,16.328 C0.5616,16.328 0.216,15.9824 0.216,15.56 L0.216,15.56 L0.216,1.6784 C0.216,1.256 0.5616,0.9104 0.984,0.9104 L0.984,0.9104 Z M5.2944,9.8864 L3.1536,9.8864 C2.808,9.8864 2.5296,10.2032 2.616,10.568 C2.6832,10.8272 2.9232,11 3.1824,11 L3.1824,11 L5.3232,11 C5.6688,11 5.9472,10.6736 5.8608,10.3184 C5.7936,10.0592 5.5536,9.8864 5.2944,9.8864 L5.2944,9.8864 Z M7.1472,7.112 L3.144,7.112 C2.7984,7.112 2.52,7.4288 2.6064,7.7936 C2.6736,8.0528 2.9136,8.2256 3.1728,8.2256 L3.1728,8.2256 L7.176,8.2256 C7.5312,8.2256 7.8,7.8992 7.7136,7.544 C7.6464,7.2848 7.4064,7.112 7.1472,7.112 L7.1472,7.112 Z M9.5184,4.4048 L3.144,4.4048 C2.7984,4.4048 2.52,4.7216 2.6064,5.0864 C2.6736,5.3456 2.9136,5.5184 3.1728,5.5184 L3.1728,5.5184 L9.5472,5.5184 C9.8928,5.5184 10.1712,5.192 10.0848,4.8368 C10.0176,4.5776 9.7776,4.4048 9.5184,4.4048 L9.5184,4.4048 Z" id="形状结合"></path>
                </g>
            </g>
        </g>
    </g>
</svg>