<?xml version="1.0" encoding="UTF-8"?>
<svg width="20px" height="20px" viewBox="0 0 20 20" version="1.1" xmlns="http://www.w3.org/2000/svg" xmlns:xlink="http://www.w3.org/1999/xlink">
    <title>病历</title>
    <g id="病历" stroke="none" stroke-width="1" fill="none" fill-rule="evenodd">
        <rect id="矩形" fill-rule="nonzero" x="0" y="0" width="20" height="20"></rect>
        <path d="M16.4602425,2.05350112 C17.3427062,2.26079708 18,3.05363895 18,4 L18,16 C18,17.1045695 17.1045695,18 16,18 L4,18 C2.8954305,18 2,17.1045695 2,16 L2,4 C2,3.05363895 2.65729375,2.26079708 3.54026275,2.0530929 C3.51363706,2.19837985 3.5,2.34759737 3.5,2.5 C3.5,3.21239666 3.79797479,3.85519758 4.27608917,4.31056754 C4.13024645,4.46309821 4.03241315,4.66223578 4.00672773,4.88337887 L4,5 L4,15 C4,15.5128358 4.38604019,15.9355072 4.88337887,15.9932723 L5,16 L15,16 C15.5128358,16 15.9355072,15.6139598 15.9932723,15.1166211 L16,15 L16,5 C16,4.73251714 15.894981,4.48956278 15.7239263,4.31012009 C16.2020252,3.85519758 16.5,3.21239666 16.5,2.5 C16.5,2.34759737 16.4863629,2.19837985 16.4602425,2.05350112 Z M14.5,14 C14.7761424,14 15,14.2238576 15,14.5 C15,14.7761424 14.7761424,15 14.5,15 L5.5,15 C5.22385763,15 5,14.7761424 5,14.5 C5,14.2238576 5.22385763,14 5.5,14 L14.5,14 Z M14.5,11.5 C14.7761424,11.5 15,11.7238576 15,12 C15,12.2761424 14.7761424,12.5 14.5,12.5 L5.5,12.5 C5.22385763,12.5 5,12.2761424 5,12 C5,11.7238576 5.22385763,11.5 5.5,11.5 L14.5,11.5 Z M10,5 C10.2761424,5 10.5,5.22385763 10.5,5.5 L10.5,7 L12,7 C12.2761424,7 12.5,7.22385763 12.5,7.5 C12.5,7.77614237 12.2761424,8 12,8 L10.5,8 L10.5,9.5 C10.5,9.77614237 10.2761424,10 10,10 C9.72385763,10 9.5,9.77614237 9.5,9.5 L9.5,8 L8,8 C7.72385763,8 7.5,7.77614237 7.5,7.5 C7.5,7.22385763 7.72385763,7 8,7 L9.5,7 L9.5,5.5 C9.5,5.22385763 9.72385763,5 10,5 Z M13.75,1 C14.4403559,1 15,1.55964406 15,2.25 C15,2.94035594 14.4403559,3.5 13.75,3.5 L6.25,3.5 C5.55964406,3.5 5,2.94035594 5,2.25 C5,1.55964406 5.55964406,1 6.25,1 L13.75,1 Z" fill="#7E89A4"></path>
    </g>
</svg>