<?xml version="1.0" encoding="UTF-8"?>
<svg width="16px" height="16px" viewBox="0 0 16 16" version="1.1" xmlns="http://www.w3.org/2000/svg" xmlns:xlink="http://www.w3.org/1999/xlink">
    <title>字体</title>
    <g id="字体" stroke="none" stroke-width="1" fill="none" fill-rule="evenodd">
        <rect id="矩形" fill-rule="nonzero" x="0" y="0" width="16" height="16"></rect>
        <path d="M12,6 L12,8 L11,9 L15,9 L15,11 L9,11 L9,15 L4,15 L5,13 L7,13 L7,11 L1,11 L1,9 L7,9 L8,8 L4,8 L4,6 L12,6 Z M6.93012611,3 L6,1 L8.33088904,1 L9.29589308,3 L15,3 L15,7 L13,7 L13,5 L3,5 L3,7 L1,7 L1,3 L6.93012611,3 Z" fill="#7E89A4"></path>
    </g>
</svg>