<?xml version="1.0" encoding="UTF-8"?>
<svg width="20px" height="20px" viewBox="0 0 20 20" version="1.1" xmlns="http://www.w3.org/2000/svg" xmlns:xlink="http://www.w3.org/1999/xlink">
    <title>痕迹</title>
    <g id="痕迹" stroke="none" stroke-width="1" fill="none" fill-rule="evenodd">
        <rect id="矩形" fill-rule="nonzero" x="0" y="0" width="20" height="20"></rect>
        <path d="M3.57312595,1.24882998 C4.63496091,0.953349209 6.9093116,0.88230613 8.54556346,1.24973787 C9.37466372,1.44344529 9.87393367,1.56589825 10.0433733,1.61709673 C11.9314043,2.18913978 13.9516307,2.18913978 15.8396617,1.61709673 L15.8396617,1.61709673 L16.2014683,1.50764484 C16.388503,1.45090673 16.591909,1.48456827 16.7496008,1.59835078 C16.9071168,1.71236032 17.0000575,1.89290108 17.0000575,2.0848361 L17.0000575,2.0848361 L17.0000575,10.422013 C17.0000575,10.9448545 16.5473686,11.5456679 16.0026577,11.7090532 C15.4579468,11.8724385 14.1012425,12.1201722 12.9956435,12.1210391 C11.8900362,12.1202812 10.8059306,12.0289963 9.74959813,11.7090532 C9.5994888,11.663297 9.10795676,11.5227844 8.27500201,11.2875154 C6.82035559,10.9612764 4.47345752,11.7669537 4.0000575,11.973934 L4.0000575,11.973934 L4.0000575,16.973934 C4.0000575,17.3079042 3.77757995,17.973934 3.0000575,17.973934 C2.22253506,17.973934 2,17.3079042 2,16.973934 L2,16.973934 L2,1.973934 C2,1.9611501 2.51129098,1.54431074 3.57312595,1.24882998 Z M13.1397479,4.8213938 C12.9282105,4.64389291 12.6128328,4.67148489 12.4353319,4.88302222 L12.4353319,4.88302222 L9.53933983,8.33240439 L7.79289322,6.58578644 C7.59763107,6.39052429 7.28104858,6.39052429 7.08578644,6.58578644 C6.89052429,6.78104858 6.89052429,7.09763107 7.08578644,7.29289322 L7.08578644,7.29289322 L9.20710678,9.41421356 C9.37867484,9.58578162 9.64390639,9.60660055 9.83864327,9.47653168 C9.89398405,9.4472226 9.94470655,9.4069577 9.98743825,9.35603205 L9.98743825,9.35603205 L13.2013763,5.52580983 C13.3788772,5.3142725 13.3512852,4.9988947 13.1397479,4.8213938 Z" id="形状结合" fill="#7E89A4" fill-rule="nonzero"></path>
    </g>
</svg>