<?xml version="1.0" encoding="UTF-8"?>
<svg width="16px" height="16px" viewBox="0 0 16 16" version="1.1" xmlns="http://www.w3.org/2000/svg" xmlns:xlink="http://www.w3.org/1999/xlink">
    <title>格式刷</title>
    <g id="格式刷" stroke="none" stroke-width="1" fill="none" fill-rule="evenodd">
        <rect id="矩形" fill-rule="nonzero" x="0" y="0" width="16" height="16"></rect>
        <path d="M14,7 L14,14 L12.5,14 C11.9505133,14 11.6148927,13.539 11.5,13 C11.5,13 11.0175166,11 10.5,11 C10.5,13 10,13.5 10,13.5 C9.69328649,13.954 8.89676673,14 8.33728931,14 L2.56568034,14 C2.0131964,14 1.83636157,13.656 2.16505455,13.21 C2.16505455,13.21 3.5,11.5 3.5,10 L3.5,7 L14,7 Z M7.5,1.5 C7.5,1.22385763 7.72385763,1 8,1 L9,1 C9.27614237,1 9.5,1.22385763 9.5,1.5 L9.5,5 L13.5,5 C13.7761424,5 14,5.22385763 14,5.5 L14,6 L3.5,6 L3.5,5.5 C3.5,5.22385763 3.72385763,5 4,5 L7.5,5 L7.5,1.5 Z" fill="#7E89A4"></path>
    </g>
</svg>