<?xml version="1.0" encoding="UTF-8"?>
<svg width="20px" height="20px" viewBox="0 0 20 20" version="1.1" xmlns="http://www.w3.org/2000/svg" xmlns:xlink="http://www.w3.org/1999/xlink">
    <title>打印</title>
    <g id="打印" stroke="none" stroke-width="1" fill="none" fill-rule="evenodd">
        <rect id="矩形" fill-rule="nonzero" x="0" y="0" width="20" height="20"></rect>
        <path d="M5,11 L5,14 L6.5,14 C6.77614237,14 7,14.2238576 7,14.5 L7,16 L14,16 C14.5128358,16 14.9355072,15.6139598 14.9932723,15.1166211 L15,15 L15,11 L17,11 L17,16 C17,17.1045695 16.1045695,18 15,18 L6,18 L3,15 L3,11 L5,11 Z M13.5,12 C13.7761424,12 14,12.2238576 14,12.5 C14,12.7761424 13.7761424,13 13.5,13 L6.5,13 C6.22385763,13 6,12.7761424 6,12.5 C6,12.2238576 6.22385763,12 6.5,12 L13.5,12 Z M18,7 C18.5522847,7 19,7.44771525 19,8 L19,12 C19,12.5522847 18.5522847,13 18,13 L17.5,13 L17.5,12 C17.7454599,12 17.9496084,11.8231248 17.9919443,11.5898756 L18,11.5 L18,11 C18,10.4477153 17.5522847,10 17,10 L3,10 C2.48716416,10 2.06449284,10.3860402 2.00672773,10.8833789 L2,11 L2,11.5 C2,11.7454599 2.17687516,11.9496084 2.41012437,11.9919443 L2.5,12 L2.5,13 L2,13 C1.44771525,13 1,12.5522847 1,12 L1,8 C1,7.44771525 1.44771525,7 2,7 L18,7 Z M17.5,7.5 C16.9477153,7.5 16.5,7.94771525 16.5,8.5 C16.5,9.05228475 16.9477153,9.5 17.5,9.5 C18.0522847,9.5 18.5,9.05228475 18.5,8.5 C18.5,7.94771525 18.0522847,7.5 17.5,7.5 Z M13.5,5 C13.7761424,5 14,5.22385763 14,5.5 C14,5.77614237 13.7761424,6 13.5,6 L6.5,6 C6.22385763,6 6,5.77614237 6,5.5 C6,5.22385763 6.22385763,5 6.5,5 L13.5,5 Z M15,1 C16.1045695,1 17,1.8954305 17,3 L17,6 L15,6 L15,4 C15,3.44771525 14.5522847,3 14,3 L6,3 C5.48716416,3 5.06449284,3.38604019 5.00672773,3.88337887 L5,4 L5,6 L3,6 L3,3 C3,1.8954305 3.8954305,1 5,1 L15,1 Z" fill="#7E89A4"></path>
    </g>
</svg>