<?xml version="1.0" encoding="UTF-8"?>
<svg width="16px" height="16px" viewBox="0 0 16 16" version="1.1" xmlns="http://www.w3.org/2000/svg" xmlns:xlink="http://www.w3.org/1999/xlink">
    <title>上标</title>
    <g id="上标" stroke="none" stroke-width="1" fill="none" fill-rule="evenodd">
        <rect id="矩形" fill-rule="nonzero" x="0" y="0" width="16" height="16"></rect>
        <path d="M3.42562967,2 C3.78129673,2 4.11019824,2.18891127 4.28940857,2.49612897 L6.49953617,6.286 L8.71059143,2.49612897 C8.8698895,2.22304657 9.14746208,2.04344086 9.45697458,2.00689986 L9.57437033,2 L10,2 C10.1016949,2 10.2015666,2.02700023 10.2894086,2.07824136 C10.563413,2.2380773 10.6559649,2.58977443 10.496129,2.8637789 L10.496129,2.8637789 L7.49953617,8 L10.496129,13.1362211 C10.6559649,13.4102256 10.563413,13.7619227 10.2894086,13.9217586 C10.2015666,13.9729998 10.1016949,14 10,14 L9.57437033,14 C9.21870327,14 8.88980176,13.8110887 8.71059143,13.503871 L6.49953617,9.713 L4.28940857,13.503871 C4.1301105,13.7769534 3.85253792,13.9565591 3.54302542,13.9931001 L3.42562967,14 L3,14 C2.89830507,14 2.79843337,13.9729998 2.71059143,13.9217586 C2.43658697,13.7619227 2.34403509,13.4102256 2.50387103,13.1362211 L2.50387103,13.1362211 L5.49953617,8 L2.50387103,2.8637789 C2.34403509,2.58977443 2.43658697,2.2380773 2.71059143,2.07824136 C2.79843337,2.02700023 2.89830507,2 3,2 L3.42562967,2 Z M14,1 L14,3 L12,3.5 L12,4 L14,4 L14,5 L11,5 L11,3 L13,2.5 L13,2 L11,2 L11,1 L14,1 Z" fill="#7E89A4"></path>
    </g>
</svg>