<?xml version="1.0" encoding="UTF-8"?>
<svg width="20px" height="20px" viewBox="0 0 20 20" version="1.1" xmlns="http://www.w3.org/2000/svg" xmlns:xlink="http://www.w3.org/1999/xlink">
    <title>公式</title>
    <g id="公式" stroke="none" stroke-width="1" fill="none" fill-rule="evenodd">
        <rect id="矩形" fill-rule="nonzero" x="0" y="0" width="20" height="20"></rect>
        <path d="M17,1 C18.1045695,1 19,1.8954305 19,3 L19,17 C19,18.1045695 18.1045695,19 17,19 L3,19 C1.8954305,19 1,18.1045695 1,17 L1,3 C1,1.8954305 1.8954305,1 3,1 L17,1 Z M16,3 L4,3 C3.48716416,3 3.06449284,3.38604019 3.00672773,3.88337887 L3,4 L3,16 C3,16.5128358 3.38604019,16.9355072 3.88337887,16.9932723 L4,17 L16,17 C16.5128358,17 16.9355072,16.6139598 16.9932723,16.1166211 L17,16 L17,4 C17,3.44771525 16.5522847,3 16,3 Z M8.24264069,11 L8.94974747,11.7071068 L7.182,13.474 L8.94974747,15.2426407 L8.24264069,15.9497475 L6.475,14.182 L4.70710678,15.9497475 L4,15.2426407 L5.767,13.474 L4,11.7071068 L4.70710678,11 L6.475,12.767 L8.24264069,11 Z M13.5,14.5 C13.7761424,14.5 14,14.7238576 14,15 C14,15.2761424 13.7761424,15.5 13.5,15.5 C13.2238576,15.5 13,15.2761424 13,15 C13,14.7238576 13.2238576,14.5 13.5,14.5 Z M16,13 L16,14 L11,14 L11,13 L16,13 Z M13.5,11.6 C13.7761424,11.6 14,11.8238576 14,12.1 C14,12.3761424 13.7761424,12.6 13.5,12.6 C13.2238576,12.6 13,12.3761424 13,12.1 C13,11.8238576 13.2238576,11.6 13.5,11.6 Z M7,4 L7,6 L9,6 L9,7 L7,7 L7,9 L6,9 L6,7 L4,7 L4,6 L6,6 L6,4 L7,4 Z M16,6 L16,7 L11,7 L11,6 L16,6 Z" fill="#7E89A4" fill-rule="nonzero"></path>
    </g>
</svg>