<?xml version="1.0" encoding="UTF-8"?>
<svg width="16px" height="16px" viewBox="0 0 16 16" version="1.1" xmlns="http://www.w3.org/2000/svg" xmlns:xlink="http://www.w3.org/1999/xlink">
    <title>复制</title>
    <g id="复制" stroke="none" stroke-width="1" fill="none" fill-rule="evenodd">
        <rect id="矩形" fill-rule="nonzero" x="0" y="0" width="16" height="16"></rect>
        <path d="M13,3 L13,15 L1,15 L1,3 L13,3 Z M11,5 L3,5 L3,13 L11,13 L11,5 Z M15,1 L15,13 L14,13 L14,2 L3,2 L3,1 L15,1 Z M7,6 C7.27614237,6 7.5,6.22385763 7.5,6.5 L7.5,8.5 L9.5,8.5 C9.77614237,8.5 10,8.72385763 10,9 C10,9.27614237 9.77614237,9.5 9.5,9.5 L7.5,9.5 L7.5,11.5 C7.5,11.7761424 7.27614237,12 7,12 C6.72385763,12 6.5,11.7761424 6.5,11.5 L6.5,9.5 L4.5,9.5 C4.22385763,9.5 4,9.27614237 4,9 C4,8.72385763 4.22385763,8.5 4.5,8.5 L6.5,8.5 L6.5,6.5 C6.5,6.22385763 6.72385763,6 7,6 Z" fill="#7E89A4"></path>
    </g>
</svg>