<?xml version="1.0" encoding="UTF-8"?>
<svg width="20px" height="20px" viewBox="0 0 20 20" version="1.1" xmlns="http://www.w3.org/2000/svg" xmlns:xlink="http://www.w3.org/1999/xlink">
    <title>提交病历</title>
    <g id="提交病历" stroke="none" stroke-width="1" fill="none" fill-rule="evenodd">
        <rect id="矩形" fill-rule="nonzero" x="0" y="0" width="20" height="20"></rect>
        <path d="M16.4602425,2.05350112 C17.3427062,2.26079708 18,3.05363895 18,4 L18,16 C18,17.1045695 17.1045695,18 16,18 L4,18 C2.8954305,18 2,17.1045695 2,16 L2,4 C2,3.05363895 2.65729375,2.26079708 3.54026275,2.0530929 C3.51363706,2.19837985 3.5,2.34759737 3.5,2.5 C3.5,3.21239666 3.79797479,3.85519758 4.27608917,4.31056754 C4.13024645,4.46309821 4.03241315,4.66223578 4.00672773,4.88337887 L4,5 L4,15 C4,15.5128358 4.38604019,15.9355072 4.88337887,15.9932723 L5,16 L15,16 C15.5128358,16 15.9355072,15.6139598 15.9932723,15.1166211 L16,15 L16,5 C16,4.73251714 15.894981,4.48956278 15.7239263,4.31012009 C16.2020252,3.85519758 16.5,3.21239666 16.5,2.5 C16.5,2.34759737 16.4863629,2.19837985 16.4602425,2.05350112 Z M14.5,14 C14.7761424,14 15,14.2238576 15,14.5 C15,14.7761424 14.7761424,15 14.5,15 L5.5,15 C5.22385763,15 5,14.7761424 5,14.5 C5,14.2238576 5.22385763,14 5.5,14 L14.5,14 Z M14.5,11.5 C14.7761424,11.5 15,11.7238576 15,12 C15,12.2761424 14.7761424,12.5 14.5,12.5 L5.5,12.5 C5.22385763,12.5 5,12.2761424 5,12 C5,11.7238576 5.22385763,11.5 5.5,11.5 L14.5,11.5 Z M13.9748737,5.02512627 C14.1701359,5.22038841 14.1701359,5.5369709 13.9748737,5.73223305 L9.73223305,9.97487373 C9.565518,10.1415888 9.31036328,10.1659623 9.11778868,10.0479944 C8.99168779,10.0474568 8.86475991,9.99864339 8.76776695,9.90165043 L6.64644661,7.78033009 C6.45118446,7.58506794 6.45118446,7.26848545 6.64644661,7.0732233 C6.84170876,6.87796116 7.15829124,6.87796116 7.35355339,7.0732233 L9.286,9.006 L13.267767,5.02512627 C13.4630291,4.82986412 13.7796116,4.82986412 13.9748737,5.02512627 Z M13.75,1 C14.4403559,1 15,1.55964406 15,2.25 C15,2.94035594 14.4403559,3.5 13.75,3.5 L6.25,3.5 C5.55964406,3.5 5,2.94035594 5,2.25 C5,1.55964406 5.55964406,1 6.25,1 L13.75,1 Z" fill="#7E89A4"></path>
    </g>
</svg>