<?xml version="1.0" encoding="UTF-8"?>
<svg width="16px" height="16px" viewBox="0 0 16 16" version="1.1" xmlns="http://www.w3.org/2000/svg" xmlns:xlink="http://www.w3.org/1999/xlink">
    <title>剪贴</title>
    <g id="剪贴" stroke="none" stroke-width="1" fill="none" fill-rule="evenodd">
        <rect id="矩形" fill-rule="nonzero" x="0" y="0" width="16" height="16"></rect>
        <path d="M13,3 L13,15 L1,15 L1,3 L13,3 Z M11,5 L3,5 L3,13 L11,13 L11,5 Z M15,1 L15,13 L14,13 L14,2 L3,2 L3,1 L15,1 Z M9,10 C9.55228475,10 10,10.4477153 10,11 C10,11.5522847 9.55228475,12 9,12 C8.44771525,12 8,11.5522847 8,11 C8,10.4477153 8.44771525,10 9,10 Z M5,10 C5.55228475,10 6,10.4477153 6,11 C6,11.5522847 5.55228475,12 5,12 C4.44771525,12 4,11.5522847 4,11 C4,10.4477153 4.44771525,10 5,10 Z M10,6 L10,7.5 L7,11 L4,7.5 L4,6 L7,9.5 L10,6 Z" fill="#7E89A4"></path>
    </g>
</svg>