<?xml version="1.0" encoding="UTF-8"?>
<svg width="16px" height="16px" viewBox="0 0 16 16" version="1.1" xmlns="http://www.w3.org/2000/svg" xmlns:xlink="http://www.w3.org/1999/xlink">
    <title>加粗</title>
    <g id="加粗" stroke="none" stroke-width="1" fill="none" fill-rule="evenodd">
        <rect id="矩形" fill-rule="nonzero" x="0" y="0" width="16" height="16"></rect>
        <path d="M3,14 L3,2 L9,2 C10.6568542,2 12,3.34314575 12,5 C12,5.92499806 11.5813644,6.75221853 10.9232236,7.30253096 C12.1467164,7.84648527 13,9.07359511 13,10.5 C13,12.4329966 11.4329966,14 9.5,14 L3,14 Z M5,12 L9.5,12 C10.3284271,12 11,11.3284271 11,10.5 C11,9.72030388 10.4051119,9.07955132 9.64446001,9.00686658 L9.5,9 L5,9 L5,12 Z M9,4 L5,4 L5,6 L9,6 C9.55228475,6 10,5.55228475 10,5 C10,4.48716416 9.61395981,4.06449284 9.11662113,4.00672773 L9,4 Z" fill="#7E89A4"></path>
    </g>
</svg>