<?xml version="1.0" encoding="UTF-8"?>
<svg width="20px" height="20px" viewBox="0 0 20 20" version="1.1" xmlns="http://www.w3.org/2000/svg" xmlns:xlink="http://www.w3.org/1999/xlink">
    <title>符号</title>
    <g id="符号" stroke="none" stroke-width="1" fill="none" fill-rule="evenodd">
        <rect id="矩形" fill-rule="nonzero" x="0" y="0" width="20" height="20"></rect>
        <path d="M10,0.5 C12.6233526,0.5 14.9983526,1.56332372 16.7175144,3.28248558 C18.4366763,5.00164744 19.5,7.37664744 19.5,10 C19.5,12.6233526 18.4366763,14.9983526 16.7175144,16.7175144 C14.9983526,18.4366763 12.6233526,19.5 10,19.5 C7.37664744,19.5 5.00164744,18.4366763 3.28248558,16.7175144 C1.56332372,14.9983526 0.5,12.6233526 0.5,10 C0.5,7.37664744 1.56332372,5.00164744 3.28248558,3.28248558 C5.00164744,1.56332372 7.37664744,0.5 10,0.5 Z M10,1.5 C7.65278981,1.5 5.52778981,2.45139491 3.98959236,3.98959236 C2.45139491,5.52778981 1.5,7.65278981 1.5,10 C1.5,12.3472102 2.45139491,14.4722102 3.98959236,16.0104076 C5.52778981,17.5486051 7.65278981,18.5 10,18.5 C12.3472102,18.5 14.4722102,17.5486051 16.0104076,16.0104076 C17.5486051,14.4722102 18.5,12.3472102 18.5,10 C18.5,7.65278981 17.5486051,5.52778981 16.0104076,3.98959236 C14.4722102,2.45139491 12.3472102,1.5 10,1.5 Z" stroke="#7E89A4"></path>
    </g>
</svg>