<?xml version="1.0" encoding="UTF-8"?>
<svg width="16px" height="16px" viewBox="0 0 16 16" version="1.1" xmlns="http://www.w3.org/2000/svg" xmlns:xlink="http://www.w3.org/1999/xlink">
    <title>宋体</title>
    <g id="宋体" stroke="none" stroke-width="1" fill="none" fill-rule="evenodd">
        <rect id="矩形" fill-rule="nonzero" x="0" y="0" width="16" height="16"></rect>
        <path d="M8.9958824,6 L8.99501948,8 L14,8 L14,10 L11.9140195,10 L15.1819805,13.267767 L13.767767,14.6819805 L9.08501948,10 L8.99501948,10 L8.9958824,15.5 L7,15.5 L6.99901948,10 L6.91301948,10 L2.23223305,14.6819805 L0.818019485,13.267767 L4.08501948,10 L2,10 L2,8 L6.99901948,8 L7,6 L8.9958824,6 Z M14.9958824,7 L13,7 L13,5 L2.9958824,5 L2.9958824,7 L1,7 L1,3 L6.93012611,3 L6,1 L8.33088904,1 L9.29589308,3 L15,3 L15,5 L14.9958824,5 L14.9958824,7 Z" fill="#7E89A4"></path>
    </g>
</svg>